<svg width="133" height="12" viewBox="0 0 133 12" fill="none" xmlns="http://www.w3.org/2000/svg">
<g clip-path="url(#clip0_1439_7071)">
<path d="M65.8135 11.8148V0.179626H67.197V11.8148H65.8135Z" fill="#FDFDFD"/>
<path d="M77.7394 0.179626H79.1068V11.8148H77.9325L71.594 2.73903V11.8148H70.2427V0.179626H71.4975L77.7394 9.15437V0.179626Z" fill="#FDFDFD"/>
<path d="M5.70031 12C4.04867 12 2.6866 11.4331 1.6141 10.305C0.536247 9.1768 0 7.73994 0 6C0 4.26006 0.536247 2.8232 1.6141 1.69504C2.6866 0.566885 4.04867 0 5.70031 0C6.54758 0 7.3305 0.168382 8.05979 0.505145C8.78373 0.841908 9.40041 1.3246 9.90448 1.942C10.4086 2.56501 10.7571 3.28906 10.9609 4.11974H9.5452C9.25026 3.27783 8.76228 2.62114 8.08661 2.14406C7.41093 1.66698 6.61729 1.43124 5.70567 1.43124C4.45621 1.43124 3.43198 1.85781 2.63297 2.71656C1.8286 3.5753 1.43178 4.6754 1.43178 6.00561C1.43178 7.34144 1.83396 8.43592 2.63297 9.28906C3.43198 10.1422 4.45621 10.5688 5.70567 10.5688C6.63874 10.5688 7.44847 10.3162 8.13487 9.81104C8.82126 9.30589 9.30925 8.6043 9.59346 7.70627H11.0252C10.7089 9.02526 10.0707 10.0692 9.11084 10.8382C8.15096 11.6127 7.01411 12 5.70031 12Z" fill="#FDFDFD"/>
<path d="M20.2273 0.185242H21.6108V11.8204H20.2273V6.53323H14.468V11.8204H13.0845V0.185242H14.468V5.13566H20.2326V0.185242H20.2273Z" fill="#FDFDFD"/>
<path d="M32.4269 11.8148L31.3169 9.02528H25.9812L24.8873 11.8148H23.4126L27.9546 0.179626H29.2577L33.9445 11.8148H32.4269ZM28.6303 2.19459L26.5014 7.69506H30.7914L28.6303 2.19459Z" fill="#FDFDFD"/>
<path d="M118.183 0.179626H119.706L115.277 11.8148H113.99L109.496 0.179626H111.035L114.639 9.62022L118.183 0.179626Z" fill="#FDFDFD"/>
<path d="M121.567 11.8148V0.179626H122.95V11.8148H121.567Z" fill="#FDFDFD"/>
<path d="M127.106 10.4509H133V11.8148H124.886V11.5622L130.619 1.53791H125.138V0.179626H132.823V0.460263L127.106 10.4509Z" fill="#FDFDFD"/>
<path d="M38.3042 5.57343H58.9175" stroke="#EBE3D8" stroke-width="1.8507" stroke-miterlimit="10"/>
<path d="M84.6411 5.57343H105.254" stroke="#EBE3D8" stroke-width="1.8507" stroke-miterlimit="10"/>
</g>
<defs>
<clipPath id="clip0_1439_7071">
<rect width="133" height="12" fill="white"/>
</clipPath>
</defs>
</svg>
