<?xml version="1.0" encoding="utf-8"?>
<!-- Generator: Adobe Illustrator 25.0.1, SVG Export Plug-In . SVG Version: 6.00 Build 0)  -->
<svg version="1.1" id="katman_1" xmlns="http://www.w3.org/2000/svg" xmlns:xlink="http://www.w3.org/1999/xlink" x="0px" y="0px"
	 viewBox="0 0 560 400" style="enable-background:new 0 0 560 400;" xml:space="preserve">
<path d="M120.6,178.8c-2-1.6-4.5-2.5-7-2.5c-3.3,0-6.4,1.5-8.5,4L83,206.9c-3.4,4.1-3.4,10,0,14.1l22.2,26.6c2.1,2.5,5.2,4,8.4,4
	c6,0,11-5,11-11c0-2.6-0.9-5.1-2.6-7l-16.3-19.6l16.3-19.6c1.6-2,2.6-4.5,2.6-7C124.6,184,123.1,180.9,120.6,178.8z M67,176.3
	c-6,0-11,5-11,11v0v53.3c0.1,5.9,5.1,10.8,11,10.8s10.9-4.8,11-10.8v-53.3c0,0,0,0,0,0C78,181.3,73,176.3,67,176.3
	C67,176.3,67,176.3,67,176.3z M260,198.3c5.9-0.1,10.8-5.1,10.8-11c0-6-4.8-10.9-10.8-11h-46.6c-6,0-11,5-11,11v20
	c0,4.9,3.3,9.2,8,10.6l38.6,11v0.7h-35.6c-0.1,0-0.2,0-0.2,0c-6,0-11,5-11,11c0,6,5,11,11,11c0.1,0,0.2,0,0.2,0H260c6,0,11-5,11-11
	v-20c0-4.9-3.3-9.2-8-10.6l-38.6-11v-0.7H260z M186.8,176.3c-6,0-11,5-11,11v0v42.2h-24.6v-42.2c0-0.1,0-0.2,0-0.2c0-6-5-11-11-11
	s-11,5-11,11c0,0.1,0,0.2,0,0.2v53.3c0,6,5,11,11,11h0h46.6h0c6,0,11-5,11-11v-53.3c0,0,0,0,0,0
	C197.8,181.3,192.8,176.3,186.8,176.3C186.8,176.3,186.8,176.3,186.8,176.3z M315.1,180.3c-2.1-2.5-5.2-4-8.4-4h-20c-6,0-11,5-11,11
	v0v53.3c0,6,5,11,11,11h27.5c5.9-0.1,10.8-5.1,10.8-11c0-6-4.8-10.9-10.8-11h-16.5v-31.2h3.8l27.4,32.9v9.3
	c0.1,5.9,5.1,10.8,11,10.8s10.9-4.8,11-10.8v-13.3c0-2.6-0.9-5.1-2.6-7L315.1,180.3z M501.5,220.2l-33.3-39.9c-2.1-2.5-5.2-4-8.4-4
	h-20c0,0,0,0,0,0c-6,0-11,5-11,11v0v53.3c0,6,5,11,11,11h0h27.5c5.9-0.1,10.8-5.1,10.8-11c0-6-4.8-10.9-10.8-11h-16.5v-31.2h3.8
	l27.4,32.9v9.3c0.1,5.9,5.1,10.8,11,10.8s10.9-4.8,11-10.8v-13.3C504,224.7,503.1,222.2,501.5,220.2z M417.7,177.3
	c-3.9-1.8-8.5-1.1-11.8,1.6l-16.1,13.8l-16.2-13.8c-2-1.7-4.5-2.6-7.2-2.6c-6,0-11,5-11,11v0v53.3c0.1,5.9,5.1,10.8,11,10.8
	s10.9-4.8,11-10.8v-29.4l5.2,4.4c4.1,3.5,10.2,3.5,14.3,0l5.1-4.4v29.3c0,6,5,11,11,11c6,0,11-5,11-11v-53.3
	C424.2,183,421.6,179.1,417.7,177.3L417.7,177.3z M340.6,171.3v0.4c0,0,15.1-6,18.1-4.4l-1.8,0.5c0.2,0,3,0.2,3,0.2
	c0.1,1.2,0.8,2.3,1.8,2.9c1.7,1.1,1.8,1.8,1.8,1.8s-0.9,0.4-0.9,0.8c0.8-0.2,1.7-0.4,2.6-0.4c0.8,0,1.6,0.2,2.3,0.4
	c0.8,0.2-0.1-0.5-1.3-0.8c-1.2-0.4-2.4-1.6-3-2.4c-0.7-0.9-0.9-2.2-0.5-3.3c0.4-1.1,1.9-1.7,4.9-3.2c3.5-1.8,4.3-3.2,4.8-4.2
	c0.5-1.1,1.2-3.2,1.6-4.1c0.3-0.9,0.9-1.7,1.7-2.4c0.5-0.4,2.9-1.3,2.9-1.3s-1.8-1.6-2.4-2c-0.7-0.7-1.7-1.2-2.7-1.3
	c-1.3-0.2-2.5,0.7-3.4,1.2c-0.9,0.6-2.5,2.2-3.2,2.7c-0.7,0.5-2.4,0.9-5.2,2.6s-13.7,8.7-13.7,8.7l2.8,0l-12.7,6.6h1.3l-1.8,1.4
	C338.7,172,339.7,171.8,340.6,171.3L340.6,171.3z"/>
</svg>
