<svg xmlns="http://www.w3.org/2000/svg" xmlns:xlink="http://www.w3.org/1999/xlink" version="1.1" id="Layer_1" x="0px" y="0px" style="enable-background:new 0 0 300 300;" xml:space="preserve" fill="#fff" viewBox="39.6 0 220.8 220.9">
    <path d="M260.4,110.4C260.4,49.5,210.9,0,150,0S39.6,49.6,39.6,110.5c0,60.9,49.5,110.4,110.4,110.4S260.4,171.3,260.4,110.4z         M150,5c58.1,0,105.4,47.3,105.4,105.4c0,14.2-2.8,27.7-7.9,40l-83.8-83.8C160,63,155.2,61,150,61s-10,2-13.7,5.6l-83.8,83.8         c-5.1-12.3-7.9-25.9-7.9-40C44.6,52.3,91.9,5,150,5z M102.6,107.5l8.3,8.4c2.1,2.1,4.9,3.2,7.7,3.2c2.8,0,5.6-1,7.9-3.1l8.4-8.4         c1.1-1.1,2.6-1.8,4.1-1.8c1.5-0.1,2.9,0.5,3.9,1.5c4.1,4.1,10.9,3.9,15.1-0.3c1.3-1.3,2.8-2.2,4.1-2.6c0.9-0.2,1.5-0.1,1.6,0         c2.9,2.9,8.4,1.8,12.8-2.6l7.6-7.6l51.7,51.7l-11.7,11.7c-2.2,2.2-6.1,2.2-8.3,0l-14.2-14.1c-4.2-4.3-11.1-4.3-15.4,0l-16.9,16.9         c-2.3,2.3-6,2.3-8.3,0l-22.3-22.3c-2-2.1-4.8-3.2-7.7-3.2s-5.6,1.1-7.7,3.2l-3.4,3.4c-2.3,2.3-6,2.3-8.3,0L90.1,120L102.6,107.5z         M106.2,104l33.8-33.8c2.7-2.7,6.3-4.2,10.1-4.2s7.4,1.5,10.1,4.2l20.4,20.4l-7.6,7.6c-2.7,2.7-5.3,3-5.7,2.6c-1.6-1.6-4-2-6.6-1.3         c-2.2,0.6-4.4,1.9-6.3,3.8c-2.3,2.3-5.9,2.4-8,0.3c-4.1-4.1-10.8-4-15.1,0.3l-8.4,8.4c-2.3,2.3-6,2.3-8.3,0L106.2,104z M150,215.8         c-42,0-78.4-24.7-95.3-60.4l31.8-31.8l21.5,21.5c4.2,4.3,11.1,4.3,15.4,0l3.4-3.4c2.2-2.2,6.1-2.2,8.3,0l22.3,22.3         c2.1,2.1,4.9,3.2,7.7,3.2c2.8,0,5.6-1.1,7.7-3.2l17-16.9c2.3-2.3,6-2.3,8.3,0l14.2,14.1c2,2.1,4.8,3.2,7.7,3.2         c2.9,0,5.6-1.1,7.7-3.2l11.7-11.7l5.9,5.9C228.4,191.1,192,215.8,150,215.8z"/>
</svg>