<svg width="61" height="61" viewBox="0 0 61 61" fill="none" xmlns="http://www.w3.org/2000/svg">
<circle cx="30.5" cy="30.5" r="30.5" fill="#08BE26"/>
<path d="M39.0724 22.5429C39.4421 22.1908 39.9342 21.9962 40.4448 22.0001C40.9553 22.0039 41.4444 22.206 41.8088 22.5636C42.1732 22.9212 42.3844 23.4063 42.3979 23.9167C42.4114 24.4271 42.2261 24.9228 41.8811 25.2991L31.4074 38.3979C31.2273 38.5918 31.0099 38.7475 30.7683 38.8556C30.5266 38.9636 30.2657 39.0218 30.001 39.0267C29.7364 39.0316 29.4734 38.9831 29.228 38.8841C28.9825 38.7851 28.7595 38.6375 28.5724 38.4504L21.6266 31.5046C21.4332 31.3244 21.278 31.107 21.1704 30.8655C21.0628 30.624 21.005 30.3633 21.0003 30.099C20.9956 29.8346 21.0443 29.5721 21.1433 29.3269C21.2423 29.0818 21.3897 28.8591 21.5766 28.6721C21.7636 28.4852 21.9863 28.3378 22.2314 28.2388C22.4766 28.1398 22.7391 28.0911 23.0035 28.0958C23.2678 28.1005 23.5285 28.1583 23.77 28.2659C24.0115 28.3735 24.2289 28.5287 24.4091 28.7221L29.9059 34.2162L39.0225 22.6006C39.0389 22.5804 39.0564 22.5611 39.075 22.5429H39.0724Z" fill="#F5F5F5"/>
</svg>
