<svg width="21" height="20" viewBox="0 0 21 20" fill="none" xmlns="http://www.w3.org/2000/svg">
<path d="M5.00337 15.209C4.87508 15.209 4.66716 15.0719 4.5256 14.8905C4.4327 14.7755 4.29556 14.5499 4.40616 14.3375C4.43712 14.2889 4.46367 14.2402 4.49463 14.1915L4.51233 14.1606L5.27322 14.9259L5.25995 14.9436C5.22898 14.9923 5.20244 15.0409 5.17147 15.0896C5.14936 15.125 5.10954 15.1825 5.03434 15.2046C5.02549 15.209 5.01664 15.209 5.00337 15.209ZM4.52117 14.2535C4.49906 14.2933 4.47694 14.3287 4.45482 14.3641C4.36192 14.5455 4.48578 14.7489 4.56984 14.8507C4.72467 15.0453 4.93701 15.1648 5.02549 15.1427C5.07857 15.1294 5.10512 15.0852 5.12724 15.0542C5.14936 15.0144 5.1759 14.9746 5.20244 14.9303L4.52117 14.2535Z" fill="white"/>
<path d="M18.2394 1.98186C18.2085 1.98186 18.1775 1.97744 18.1333 1.95532C18.1288 1.95532 17.89 1.80491 17.8988 1.68547C17.8988 1.65892 17.9165 1.62353 17.974 1.60141C18.005 1.59257 18.0271 1.58814 18.0492 1.5793C18.0625 1.57487 18.0758 1.57045 18.0934 1.56602L18.1111 1.5616L18.4695 1.91993L18.4208 1.9332C18.3854 1.94205 18.35 1.95532 18.3146 1.96417C18.2969 1.97744 18.2704 1.98186 18.2394 1.98186ZM18.0934 1.63238C18.0802 1.6368 18.0713 1.6368 18.0625 1.64123C18.0404 1.64565 18.0227 1.65008 17.9917 1.65892C17.9563 1.67219 17.9563 1.68547 17.9563 1.68989C17.9519 1.75625 18.1244 1.88454 18.1598 1.90223C18.2217 1.9332 18.266 1.91993 18.2925 1.91108C18.3146 1.90223 18.3323 1.89781 18.3545 1.89338L18.0934 1.63238Z" fill="white"/>
<path d="M16.9255 2.93297L16.9123 2.91086C16.8105 2.74717 16.7088 2.58349 16.607 2.41981L16.5363 2.30479L16.6468 2.38C16.8282 2.49944 17.0052 2.61888 17.1866 2.73833L17.2264 2.76487L17.1821 2.78699C17.1069 2.83123 17.0273 2.87546 16.9477 2.9197L16.9255 2.93297ZM16.7265 2.49944C16.8017 2.61888 16.8725 2.7339 16.9432 2.85335C17.0008 2.82238 17.0583 2.78699 17.1113 2.75602C16.9831 2.67197 16.8548 2.58349 16.7265 2.49944Z" fill="white"/>
<path d="M12.9175 6.17119C12.6211 6.17119 12.3999 5.84826 12.3734 5.78632C12.276 5.58283 12.3114 5.43242 12.4972 5.25989C12.5592 5.2068 12.6255 5.14929 12.6875 5.09621L12.7096 5.07851L13.4705 5.84383L13.4484 5.86595C13.3864 5.91904 13.3245 5.97212 13.2581 6.02963C13.1962 6.07829 13.0856 6.16677 12.9263 6.17119C12.9219 6.17119 12.9175 6.17119 12.9175 6.17119ZM12.4265 5.7642C12.4486 5.80844 12.6565 6.11368 12.9175 6.11368H12.9219C13.0591 6.11368 13.1608 6.02963 13.2139 5.98539C13.267 5.93673 13.3245 5.89249 13.3776 5.84383L12.7007 5.16257C12.6432 5.21123 12.5901 5.25989 12.5326 5.30855C12.3689 5.45896 12.338 5.58283 12.4265 5.7642Z" fill="white"/>
<path d="M4.13188 16.7131L4.09207 16.6645C3.91954 16.4477 3.85318 16.3681 3.6895 16.1646L3.53467 15.9743L3.72932 16.1248C3.92839 16.2796 3.95051 16.2973 4.1717 16.4654L4.18939 16.4787L4.18497 16.4964C4.1717 16.5494 4.15842 16.6025 4.14515 16.6556L4.13188 16.7131ZM3.88857 16.3194C3.95493 16.399 4.01244 16.4742 4.10091 16.5804C4.10534 16.5539 4.11419 16.5273 4.12303 16.4964C4.01244 16.4123 3.95051 16.3681 3.88857 16.3194Z" fill="white"/>
<path d="M5.16703 20L0.990967 15.8239L6.88347 9.93143L1.1281 4.17607L5.30417 0L11.0595 5.75536L16.6778 0.137138L17.9562 1.41562L17.9076 1.42889C17.8589 1.44216 17.8058 1.45985 17.7527 1.47755C17.7395 1.48197 17.7262 1.49082 17.7174 1.49524C17.6864 1.51736 17.6775 1.54833 17.6864 1.59257C17.7218 1.76952 18.0138 2.0261 18.2261 2.06591L18.2703 2.07476L18.2438 2.11015C18.2084 2.16324 18.3278 2.30038 18.4473 2.42867C18.5535 2.54369 18.6065 2.60562 18.6287 2.64543C18.664 2.63216 18.695 2.61889 18.7304 2.60562C18.6906 2.55696 18.6508 2.50829 18.6021 2.46406C18.5402 2.3977 18.4738 2.33134 18.4252 2.25171C18.403 2.2119 18.3942 2.18093 18.4075 2.15439C18.4207 2.119 18.4561 2.10573 18.4782 2.09688L18.5136 2.08803C18.5358 2.07919 18.5535 2.07476 18.5844 2.06591L18.6021 2.06149L19.0578 2.51714L20.8538 4.31321L15.2356 9.93143L20.991 15.6868L16.8149 19.8629L11.0595 14.1075L5.16703 20ZM1.07502 15.8239L5.16703 19.9159L11.0595 14.0234L16.8149 19.7788L20.9069 15.6868L15.1516 9.93143L20.7742 4.31321L18.5844 2.12342C18.5667 2.12785 18.549 2.13227 18.5313 2.14112L18.5004 2.14997C18.4871 2.15439 18.4694 2.16324 18.465 2.17209C18.465 2.17651 18.4606 2.18978 18.4782 2.22075C18.5225 2.29595 18.58 2.35789 18.6464 2.42424C18.6994 2.48175 18.7569 2.53926 18.8012 2.60562L18.8233 2.63658L18.7879 2.64986C18.7348 2.66755 18.6817 2.68967 18.6287 2.71179L18.6021 2.72506L18.5933 2.69852C18.58 2.66313 18.5358 2.60562 18.4119 2.4729C18.2571 2.3048 18.173 2.19863 18.1863 2.119C17.9607 2.05707 17.6775 1.79606 17.6377 1.60584C17.62 1.51736 17.6554 1.47313 17.6908 1.44658C17.7085 1.43331 17.7306 1.42446 17.7395 1.42446C17.7793 1.41119 17.8147 1.40234 17.8501 1.38907L16.6778 0.216766L11.0595 5.83942L5.30417 0.0840522L1.20773 4.17607L6.9631 9.93143L1.07502 15.8239ZM4.60964 17.9429L4.39729 17.7306C4.35748 17.6775 4.32651 17.6156 4.30882 17.5448L4.14071 17.3723C4.14514 17.3811 4.14956 17.39 4.15841 17.3988L4.11417 17.4342L3.91952 17.2395C3.88413 17.1865 3.85759 17.129 3.83989 17.067L3.70276 16.9299C3.7116 16.9432 3.72045 16.9564 3.7293 16.9653L3.68506 17.0051L3.48157 16.8016C3.42406 16.722 3.38867 16.6291 3.37097 16.5185L3.36212 16.461C3.34443 16.3459 3.34885 16.2088 3.3754 16.054L3.38424 15.9965L3.64525 16.2619L3.64082 16.2752C3.63198 16.3238 3.62755 16.3725 3.62313 16.4167L4.46807 17.2661C4.18053 16.9166 3.84874 16.514 3.40194 15.9522L3.39309 15.9434L3.39751 15.9301C3.40636 15.8859 3.41963 15.8416 3.4329 15.793L3.44618 15.7532L3.48157 15.7797C3.70276 15.9434 3.94164 16.1292 4.24688 16.3504C4.23361 16.3371 4.22034 16.3238 4.20707 16.315L4.1938 16.3017L4.19822 16.284C4.21592 16.2353 4.23361 16.1867 4.25131 16.1336L4.26458 16.0938L4.29555 16.1203C4.46807 16.2707 4.53001 16.2663 4.5477 16.253C4.57424 16.2398 4.57867 16.1955 4.57867 16.1601C4.5654 15.9301 4.1761 15.5098 3.95934 15.4479C3.91067 15.4346 3.87971 15.4391 3.86201 15.4612C3.83989 15.4921 3.8045 15.585 3.98146 15.8018L3.9903 15.8151L3.98588 15.8328C3.96818 15.8814 3.95049 15.9301 3.93279 15.9788L3.9151 16.0274L3.88413 15.992C3.49926 15.5629 3.56119 15.3196 3.58774 15.2533V15.2488C3.64082 15.1515 3.72488 15.1073 3.83547 15.1205C4.1938 15.1604 4.71581 15.7443 4.8264 16.138C4.87506 16.315 4.85294 16.4742 4.76889 16.545C4.72465 16.5848 4.63618 16.6114 4.49019 16.5362C4.55213 16.5804 4.61406 16.6291 4.68484 16.6777L4.70254 16.691L4.69369 16.7131C4.67599 16.7618 4.6583 16.8104 4.64503 16.8591L4.63175 16.8989L4.60079 16.8724C4.52116 16.8149 4.44595 16.7529 4.36633 16.6954C4.34863 16.7529 4.33536 16.8104 4.32651 16.8635C4.40614 16.9608 4.48134 17.0537 4.56097 17.1511L4.56982 17.1599L4.5654 17.1732C4.55655 17.2174 4.55213 17.2572 4.5477 17.2971L4.54328 17.3501V17.3634C4.53885 17.3988 4.53885 17.4342 4.53885 17.4696V17.5404L3.62313 16.6158C3.62313 16.6335 3.62755 16.6512 3.62755 16.6689L3.6364 16.7175L4.55655 17.6421V17.651C4.56982 17.7527 4.60521 17.8412 4.65387 17.9075L4.60964 17.9429ZM4.44153 17.6952L4.52116 17.7748C4.51231 17.7394 4.50346 17.704 4.49904 17.6687L4.36633 17.5359C4.3796 17.5935 4.40614 17.651 4.44153 17.6952ZM3.55677 16.4654L4.48135 17.3944C4.48135 17.3855 4.48135 17.3767 4.48135 17.3678L3.56119 16.4433V16.43C3.56562 16.3858 3.57004 16.3327 3.57889 16.284L3.41963 16.1248C3.40194 16.2442 3.40194 16.3548 3.41521 16.4477L3.56119 16.5937C3.56119 16.576 3.56119 16.5583 3.56119 16.5406L3.55677 16.4654ZM3.89298 17.0582C3.91067 17.1157 3.93279 17.1643 3.95934 17.2086L4.03454 17.2838C4.03454 17.2794 4.03012 17.2705 4.03012 17.2661L4.008 17.1776L3.89298 17.0582ZM3.4506 15.9257C3.88856 16.4742 4.21149 16.8724 4.49462 17.213C4.49904 17.1997 4.49904 17.182 4.50346 17.1643C4.42384 17.067 4.34421 16.9741 4.269 16.8768L4.26016 16.8679L4.26458 16.8547C4.27785 16.7839 4.29997 16.7087 4.32209 16.6291L4.33536 16.5893L4.37075 16.6158C4.45038 16.6733 4.52558 16.7352 4.60521 16.7927C4.61406 16.7618 4.62291 16.7352 4.63618 16.7043C4.13187 16.3415 3.77796 16.0805 3.46829 15.8461C3.46387 15.8726 3.45502 15.8991 3.4506 15.9257ZM3.44175 16.6025C3.45945 16.6645 3.48599 16.7175 3.51696 16.7618L3.59216 16.837C3.58774 16.8281 3.58774 16.8193 3.58331 16.8104L3.56119 16.722L3.44175 16.6025ZM4.24688 16.2796C4.31324 16.3415 4.41056 16.4256 4.51231 16.4787C4.57867 16.514 4.66714 16.5406 4.72465 16.4964C4.79101 16.4433 4.80428 16.3017 4.76447 16.1513C4.64945 15.7487 4.13186 15.209 3.8222 15.1736C3.73372 15.1648 3.67179 15.1958 3.63198 15.271C3.60986 15.3285 3.56119 15.532 3.88413 15.908C3.89298 15.8814 3.90625 15.8505 3.9151 15.8239C3.73815 15.6027 3.75584 15.4833 3.8045 15.4214C3.82662 15.3904 3.87086 15.3594 3.96376 15.386C4.20265 15.4568 4.60521 15.8903 4.62291 16.1513C4.62291 16.1867 4.62291 16.2707 4.56097 16.3017C4.49904 16.3327 4.40614 16.2929 4.27785 16.1867C4.269 16.2221 4.26015 16.2486 4.24688 16.2796ZM4.98123 16.0319L3.8045 14.8507L3.81335 14.833C3.84432 14.7755 3.87528 14.7136 3.90625 14.656L3.92395 14.6207L5.10068 15.8018L5.09183 15.8195C5.06086 15.8814 5.0299 15.939 4.99893 15.9965L4.98123 16.0319ZM3.87528 14.8374L4.96354 15.9345C4.98566 15.8947 5.00335 15.8505 5.02547 15.8107L3.93722 14.7136C3.91952 14.7534 3.8974 14.7932 3.87528 14.8374ZM5.06529 15.501C5.03874 15.501 5.00778 15.4966 4.98123 15.4921C4.59194 15.4037 4.15841 14.7711 4.11859 14.5101C4.09205 14.3243 4.15398 14.2092 4.18495 14.1562C4.25573 14.0367 4.33094 13.9129 4.41056 13.789L4.42826 13.758L5.60057 14.9392L5.5873 14.9569C5.50767 15.0807 5.43246 15.2046 5.36168 15.324C5.28648 15.4391 5.18473 15.501 5.06529 15.501ZM4.23361 14.1827C4.20707 14.2314 4.14956 14.3331 4.1761 14.5012C4.21149 14.7445 4.63175 15.355 4.99008 15.4346C5.1228 15.4656 5.23339 15.4169 5.31744 15.2931C5.3838 15.1825 5.45458 15.063 5.52979 14.9436L4.43711 13.8465C4.36633 13.9615 4.29555 14.0765 4.23361 14.1827ZM5.65365 14.8551L4.48135 13.674L4.49462 13.6563C4.53885 13.5899 4.57867 13.5236 4.62733 13.4528L4.64503 13.4218L5.32187 14.1031C5.22454 13.873 5.07413 13.5191 4.89718 13.0723L4.89276 13.0591L4.90161 13.0458C4.95469 12.9706 5.00778 12.8954 5.06086 12.8202L5.08298 12.7892C5.14049 12.7052 5.20242 12.6211 5.26436 12.537L5.27763 12.5194L5.3086 12.5282C5.47228 12.5813 5.62711 12.6344 5.87484 12.714C5.79521 12.5017 5.7377 12.3557 5.63153 12.0637L5.62711 12.0504L5.63596 12.0372C5.70674 11.9487 5.77309 11.8558 5.8483 11.7629L5.88369 11.7186L5.90138 11.7717C6.00756 12.0858 6.1093 12.3866 6.27741 12.8644L6.73306 13.3201L6.71979 13.3422C6.66228 13.4174 6.60477 13.497 6.54726 13.5722L6.52514 13.5988L6.06949 13.1431C5.78637 13.0546 5.53421 12.975 5.13607 12.8423L6.25529 13.9704L6.24202 13.9925C6.18893 14.0633 6.14027 14.134 6.09161 14.2048L6.06949 14.2314L5.38822 13.5457C5.48555 13.789 5.62711 14.1385 5.81733 14.5853L5.82176 14.5985L5.81291 14.6118C5.76867 14.6826 5.72001 14.7534 5.67577 14.8197L5.65365 14.8551ZM4.55213 13.6695L5.64038 14.7666C5.67577 14.7136 5.71116 14.656 5.74655 14.5985C5.52094 14.0721 5.36611 13.6784 5.26878 13.4439L5.2157 13.3112L5.31744 13.4085L6.05179 14.1473C6.09161 14.0942 6.127 14.0367 6.16681 13.9792L5.07856 12.8821C5.03432 12.944 4.99008 13.006 4.95027 13.0679C5.16703 13.6076 5.33956 14.0058 5.42804 14.2225L5.48555 14.3641L4.64503 13.5191C4.61848 13.5678 4.58309 13.6165 4.55213 13.6695ZM5.14492 12.7936C5.54748 12.9263 5.79964 13.006 6.08276 13.0944H6.09161L6.50745 13.5147C6.55168 13.4528 6.59592 13.3953 6.64458 13.3333L6.21547 12.8954C6.05179 12.4353 5.95447 12.1433 5.85272 11.8469C5.79521 11.9177 5.74213 11.9929 5.68462 12.0637C5.79521 12.3645 5.85272 12.5105 5.93678 12.7405L5.96332 12.8069L5.90581 12.7892C5.63153 12.7007 5.46343 12.6432 5.2909 12.5901C5.24224 12.6609 5.19358 12.7273 5.14492 12.7936ZM6.90559 12.8467C6.90116 12.8467 6.89232 12.8467 6.88789 12.8467C6.64901 12.8334 6.4986 12.599 6.4809 12.5724C6.34376 12.3513 6.44994 12.0991 6.55168 11.8602C6.60477 11.7363 6.66228 11.6081 6.62246 11.5373C6.60919 11.5107 6.57823 11.493 6.53399 11.4842C6.48975 11.4753 6.43666 11.5019 6.388 11.5505C6.32165 11.6213 6.28626 11.7186 6.30395 11.7894C6.31722 11.8425 6.33492 11.8691 6.37031 11.9177L6.38358 11.9354L6.37031 11.9531C6.30837 12.0283 6.25086 12.1079 6.18893 12.1831L6.16681 12.2097L6.14469 12.1831C5.84388 11.8469 5.96774 11.5461 6.11815 11.3559C6.33492 11.1037 6.53399 11.0949 6.65786 11.1347C6.84365 11.1922 6.98079 11.3869 6.99849 11.5373C7.01618 11.6788 6.9631 11.816 6.89232 11.9841C6.81269 12.1787 6.76403 12.2982 6.77287 12.3557C6.78172 12.3999 6.82596 12.4618 6.88347 12.4795C6.9454 12.4972 7.01618 12.4618 7.08254 12.3822C7.25949 12.161 7.1312 12.015 7.07812 11.9487L7.06042 11.931L7.07812 11.9133C7.14447 11.8292 7.21525 11.7496 7.28161 11.6656L7.30373 11.639L7.32585 11.6656C7.60455 11.9797 7.52492 12.2805 7.45414 12.4309C7.34797 12.6653 7.10466 12.8467 6.90559 12.8467ZM6.52072 11.4267C6.52956 11.4267 6.54284 11.4267 6.55168 11.4311C6.61362 11.4444 6.65786 11.4709 6.67997 11.5152C6.72864 11.6081 6.6667 11.7496 6.60919 11.8868C6.51187 12.1124 6.41012 12.3468 6.53399 12.5459C6.54726 12.568 6.6844 12.7804 6.89232 12.7892C7.07369 12.7981 7.30373 12.6255 7.4099 12.4043C7.47626 12.2716 7.54704 12.0062 7.317 11.7275C7.25949 11.7939 7.20641 11.8646 7.1489 11.931C7.21083 12.0062 7.33027 12.1831 7.14005 12.4176C7.0383 12.5459 6.94098 12.5547 6.88347 12.537C6.79499 12.5149 6.73748 12.4309 6.72864 12.3689C6.71536 12.2937 6.7596 12.1831 6.84808 11.9664C6.91443 11.8027 6.96752 11.6744 6.94983 11.5461C6.93213 11.4134 6.81269 11.2453 6.64901 11.1922C6.49417 11.1436 6.32607 11.2143 6.17124 11.3957C6.0341 11.5638 5.92793 11.8248 6.17124 12.1212C6.2199 12.0593 6.26856 11.9973 6.3128 11.9398C6.28183 11.9 6.26414 11.8646 6.25086 11.8071C6.22432 11.7054 6.28183 11.5859 6.34819 11.5152C6.40127 11.4532 6.46321 11.4267 6.52072 11.4267ZM8.09559 11.6257L6.92328 10.4446L6.94098 10.4225C7.01176 10.3384 7.08254 10.2588 7.15332 10.1747L7.17544 10.1526L7.87882 10.8604C7.81247 10.6083 7.71072 10.2234 7.578 9.71467L7.57358 9.70139L7.58243 9.68812C7.66206 9.59965 7.74169 9.51117 7.82574 9.42269L7.84786 9.40058L9.02016 10.5817L9.00247 10.6038C8.92726 10.6879 8.84764 10.772 8.77243 10.856L8.75031 10.8781L8.0425 10.1659C8.10444 10.418 8.20618 10.8162 8.34332 11.3161L8.34775 11.3294L8.3389 11.3426C8.26369 11.4267 8.18849 11.5152 8.11771 11.5992L8.09559 11.6257ZM7.00291 10.4446L8.09559 11.5417C8.15752 11.4665 8.22388 11.3957 8.28581 11.3205C8.13098 10.7498 8.02039 10.3163 7.96288 10.0818L7.93633 9.98009L8.75031 10.7985C8.81224 10.7277 8.8786 10.6569 8.94054 10.5862L7.84786 9.48463C7.77708 9.56426 7.7063 9.63946 7.63994 9.71909C7.78592 10.2986 7.89652 10.7056 7.96288 10.9533L7.98942 11.0595L7.17544 10.2411C7.11793 10.3075 7.06042 10.3782 7.00291 10.4446ZM9.11306 10.48L8.45834 9.82084L8.47604 9.79872C8.63087 9.63061 8.79013 9.45809 8.94938 9.28998L8.9715 9.26786L9.19712 9.49347L9.17942 9.51559C9.09979 9.59965 9.02459 9.67927 8.94938 9.76333C9.09537 9.87392 9.21923 9.84738 9.30329 9.80314C9.44927 9.72794 9.55102 9.54214 9.53775 9.3873C9.52005 9.2015 9.31656 8.92723 9.0821 8.85202C8.92726 8.80336 8.78128 8.85202 8.66626 8.99359C8.56009 9.12188 8.55124 9.25017 8.63087 9.3873L8.64414 9.405L8.63087 9.42269C8.55124 9.50675 8.47161 9.59522 8.39198 9.67927L8.36544 9.70582L8.34332 9.67485C8.02039 9.21478 8.33005 8.8299 8.4318 8.72373C8.70607 8.45831 9.02459 8.3831 9.33425 8.50697C9.66162 8.63968 9.91377 8.99359 9.92262 9.32537C9.92704 9.4979 9.84741 9.76775 9.66162 9.95355C9.53775 10.073 9.38734 10.1393 9.21924 10.1438L9.30771 10.2721L9.29002 10.2898C9.23693 10.3473 9.18827 10.4004 9.13518 10.4579L9.11306 10.48ZM8.53797 9.82084L9.10864 10.3959C9.14845 10.3517 9.18827 10.3119 9.22808 10.2676L9.10422 10.0818L9.16173 10.0863C9.33868 10.0951 9.48909 10.0376 9.61738 9.91374C9.78991 9.74121 9.86511 9.48905 9.86069 9.32979C9.85184 9.0157 9.61295 8.68834 9.30771 8.56448C9.02459 8.44946 8.72377 8.52024 8.46719 8.76797C8.37429 8.8653 8.10444 9.20593 8.36544 9.61734C8.4318 9.54656 8.49816 9.47578 8.56451 9.405C8.48046 9.25459 8.49816 9.10418 8.61317 8.96262C8.78128 8.76355 8.96266 8.76355 9.09095 8.80336C9.35195 8.88299 9.56872 9.17939 9.59083 9.3873C9.60853 9.56868 9.48909 9.7766 9.32541 9.86065C9.17942 9.93585 9.02459 9.91374 8.88303 9.79429L8.86091 9.7766L8.88303 9.75448C8.95823 9.67043 9.03786 9.58638 9.11749 9.50232L8.97593 9.35634C8.82552 9.50675 8.67953 9.666 8.53797 9.82084ZM10.2898 9.23247L9.11749 8.05132L9.13961 8.0292C9.22808 7.94072 9.31656 7.84782 9.40946 7.75935L9.43158 7.73723L10.6039 8.91838L10.5818 8.9405C10.4933 9.02898 10.4004 9.12188 10.3119 9.21035L10.2898 9.23247ZM9.20154 8.05132L10.2942 9.14842C10.3694 9.07321 10.4446 8.99359 10.5198 8.91838L9.42715 7.82128C9.35195 7.90091 9.27674 7.97611 9.20154 8.05132ZM10.6393 8.61314C10.626 8.61314 10.6083 8.61314 10.595 8.60872C10.4004 8.5866 10.2633 8.43619 10.2234 8.34329C10.1173 8.1221 10.2323 7.90975 10.4358 7.59124C10.511 7.47622 10.5995 7.33024 10.5685 7.25946C10.5552 7.23291 10.5287 7.21522 10.48 7.21079C10.4225 7.20195 10.3429 7.23734 10.2721 7.30812C10.1925 7.38332 10.1438 7.47622 10.1527 7.54258C10.1571 7.60009 10.1792 7.63105 10.2102 7.67087L10.2234 7.69299L10.2057 7.71068C10.1217 7.79474 10.0376 7.87879 9.95359 7.96284L9.93147 7.98496L9.90935 7.96284C9.61738 7.62221 9.8076 7.30369 10.0199 7.09578C10.3517 6.79053 10.6039 6.83477 10.7233 6.88343C10.9003 6.95864 10.9976 7.13559 10.9976 7.26388C10.9976 7.40986 10.9136 7.55585 10.8118 7.72396C10.6791 7.94957 10.6127 8.06016 10.6127 8.11767C10.6127 8.16191 10.6481 8.20615 10.6924 8.22384C10.772 8.25481 10.8782 8.215 10.9799 8.11767C11.2188 7.88321 11.0993 7.74165 11.0418 7.67529L11.0241 7.65317L11.0418 7.63548C11.1303 7.55143 11.2188 7.46737 11.3073 7.38332L11.3294 7.3612L11.3515 7.38332C11.5329 7.59124 11.5638 7.83897 11.44 8.08228C11.2675 8.39195 10.887 8.61314 10.6393 8.61314ZM10.4579 7.14886C10.4667 7.14886 10.4756 7.14886 10.4844 7.15328C10.5508 7.16656 10.5995 7.1931 10.6172 7.23734C10.6614 7.33466 10.5685 7.48507 10.48 7.62663C10.2898 7.93187 10.1792 8.12652 10.2721 8.32117C10.3075 8.4008 10.4314 8.53351 10.5995 8.55121C10.8162 8.57775 11.2144 8.36098 11.378 8.04689C11.4577 7.89648 11.5108 7.67087 11.3205 7.43641C11.2453 7.50719 11.1701 7.57797 11.0993 7.64875C11.1657 7.72838 11.2719 7.90091 11.0153 8.14864C10.8472 8.31232 10.7145 8.28578 10.6658 8.26808C10.595 8.24154 10.5508 8.17961 10.5464 8.10883C10.542 8.03804 10.6039 7.93187 10.7543 7.68414C10.8516 7.52488 10.9312 7.38332 10.9312 7.25503C10.9312 7.14444 10.8472 6.99403 10.6924 6.92767C10.5066 6.84804 10.2809 6.91882 10.0509 7.12674C9.86069 7.31254 9.68816 7.59124 9.92262 7.88764C9.9934 7.81685 10.0642 7.74607 10.135 7.67529C10.1084 7.6399 10.0907 7.60009 10.0819 7.53816C10.0686 7.43641 10.1438 7.32581 10.219 7.25503C10.3031 7.18868 10.3871 7.14886 10.4579 7.14886ZM11.8027 7.79916L11.555 7.547L11.5771 7.52488C11.6567 7.44968 11.732 7.3789 11.8072 7.30369C11.9354 7.17983 12.0726 7.05154 12.2053 6.92767L11.9753 6.69321C11.785 6.86574 11.5948 7.04269 11.4046 7.22407L11.3825 7.24176L11.148 7.00288L11.1701 6.98076C11.3604 6.8038 11.5506 6.62243 11.7408 6.4499L11.5373 6.24198C11.3294 6.43221 11.1215 6.62685 10.9136 6.8215L10.8914 6.8392L10.6481 6.59146L10.6702 6.56934C10.9755 6.2818 11.325 5.95886 11.6302 5.68458L11.6523 5.66689L12.8069 6.81708L12.7848 6.8392C12.6079 6.99845 12.4221 7.18425 12.2363 7.37005C12.1036 7.50277 11.9664 7.6399 11.8337 7.76377L11.8027 7.79916ZM11.6391 7.55143L11.8072 7.71953C11.931 7.60009 12.0593 7.4718 12.1876 7.34793C12.3646 7.17098 12.5459 6.9896 12.714 6.8392L11.6435 5.76864C11.3515 6.02964 11.0197 6.33488 10.7278 6.61358L10.8914 6.77726C11.0993 6.58261 11.3073 6.38797 11.5152 6.19774L11.5373 6.18005L11.8249 6.4676L11.8027 6.48971C11.6125 6.66224 11.4223 6.83919 11.2321 7.02057L11.3869 7.1754C11.5771 6.99403 11.7673 6.81708 11.9576 6.64455L11.9797 6.62685L12.2938 6.94094L12.2717 6.96306C12.1301 7.09135 11.9885 7.22849 11.8558 7.35678C11.7762 7.41871 11.7098 7.48507 11.6391 7.55143ZM12.8556 6.48971C12.7273 6.48971 12.599 6.45432 12.4796 6.38797C12.1389 6.19332 11.9399 5.79518 11.9753 5.55187C12.0062 5.32183 12.1036 5.23778 12.1655 5.18027L12.2186 5.13161C12.2894 5.0741 12.3646 5.00332 12.4398 4.93696C12.5371 4.84848 12.6433 4.75559 12.7317 4.68038L12.7539 4.66269L13.9262 5.84384L13.904 5.86596C13.7492 5.99867 13.5899 6.13139 13.4307 6.26852C13.2449 6.41451 13.0502 6.48971 12.8556 6.48971ZM12.2141 5.21566L12.2053 5.22451C12.1434 5.27759 12.0637 5.3528 12.0328 5.56072C12.0018 5.78191 12.2009 6.16235 12.5105 6.33488C12.7096 6.44548 13.0237 6.51626 13.3909 6.21986C13.5413 6.09157 13.6917 5.96328 13.8421 5.83499L12.7494 4.73789C12.6654 4.80867 12.5725 4.89272 12.4796 4.97678C12.4044 5.04756 12.3292 5.11391 12.2584 5.17142L12.2141 5.21566ZM14.3022 5.55187L14.0544 5.29971L14.081 5.27759C14.2756 5.11834 14.4747 4.9635 14.6649 4.81309L14.426 4.57421C14.2535 4.71135 14.0766 4.84848 13.8996 4.99447L13.8775 5.01217L13.6386 4.77328L13.6652 4.75116C13.8421 4.6096 14.0191 4.46804 14.1872 4.33532L13.9837 4.12741C13.7934 4.27339 13.5988 4.42822 13.4042 4.58748L13.382 4.60518L13.1387 4.35744L13.1653 4.33532C13.4484 4.10529 13.7315 3.8841 14.0014 3.67618L14.0368 3.64964C14.1208 3.5877 14.2004 3.52577 14.2845 3.46384L14.3022 3.45056L14.3199 3.45941C14.5853 3.61424 14.8773 3.7912 15.2621 4.02123C15.1604 3.83986 14.9746 3.52134 14.7578 3.14975L14.7446 3.12763L14.7667 3.11436C14.8463 3.05685 14.9259 3.00376 15.0011 2.94625L15.0277 2.92856L15.0321 2.92413C15.1073 2.87105 15.1825 2.82238 15.2533 2.7693L15.2975 2.73833C15.5718 2.55253 15.8372 2.38443 16.085 2.23402L16.1027 2.22075L16.3548 2.47733L16.3239 2.49502C16.2442 2.54369 16.1602 2.59677 16.0761 2.64986L16.9963 3.58328L16.9653 3.60097C16.8945 3.64521 16.8237 3.68945 16.753 3.73811L16.7353 3.75138L15.8151 2.82681C15.7266 2.88432 15.6337 2.94625 15.5408 3.00818L15.5232 3.01703L16.4433 3.94161L16.4123 3.9593C16.3371 4.00796 16.2663 4.06105 16.1911 4.11413L16.169 4.12741L15.0763 3.02588C15.3064 3.42402 15.5276 3.80447 15.8284 4.33532L15.8417 4.35744L15.8195 4.37071C15.7311 4.43265 15.647 4.499 15.5585 4.56094L15.5453 4.57421L15.5276 4.56536C15.0631 4.29109 14.6738 4.06547 14.0854 3.72484L15.1914 4.83964L15.1648 4.86176C14.8861 5.0741 14.603 5.29971 14.3155 5.52975L14.3022 5.55187ZM14.1385 5.30414L14.3066 5.47224C14.5765 5.25105 14.8463 5.03871 15.1073 4.83964L14.0146 3.74253C13.7581 3.94161 13.4882 4.14952 13.2228 4.36629L13.3865 4.52997C13.5811 4.37071 13.7757 4.21588 13.966 4.0699L13.9881 4.0522L14.2756 4.33975L14.2491 4.36187C14.0766 4.49458 13.904 4.63614 13.7271 4.7777L13.8819 4.93254C14.0589 4.79098 14.2358 4.64941 14.4128 4.51228L14.4349 4.49458L14.7534 4.81752L14.7269 4.83964C14.5322 4.99005 14.3331 5.14488 14.1385 5.30414ZM14.1075 3.67618C14.6915 4.01239 15.0808 4.24242 15.5453 4.51228C15.6205 4.45477 15.6957 4.40168 15.7709 4.3486C15.4656 3.81332 15.2445 3.42845 15.0056 3.02146C14.9436 3.06569 14.8817 3.10993 14.8153 3.15417C15.0675 3.5877 15.271 3.94603 15.355 4.09202L15.417 4.20261L15.3197 4.1451C14.8994 3.89294 14.5809 3.70272 14.2978 3.53462C14.2358 3.57443 14.1695 3.62309 14.1075 3.67618ZM15.0896 2.95952L16.1779 4.05662C16.2354 4.01681 16.2929 3.977 16.3504 3.93718L15.2621 2.84008C15.2046 2.87547 15.1471 2.91528 15.0896 2.95952ZM15.824 2.7516L16.7441 3.67618C16.7972 3.64079 16.8503 3.6054 16.9034 3.57443L15.9832 2.64986L16.0142 2.63216C16.0982 2.57908 16.1823 2.52599 16.2619 2.47733L16.0938 2.30922C15.8594 2.45079 15.6116 2.61004 15.355 2.78257L15.5232 2.9551C15.616 2.89317 15.709 2.83123 15.7974 2.77372L15.824 2.7516ZM17.0272 3.57001L17.014 3.54346C16.7707 3.1232 16.545 2.72948 16.2265 2.1942L16.2133 2.16766L16.2398 2.15439C16.3062 2.11458 16.3725 2.07476 16.4389 2.03937L16.4521 2.03052L16.4654 2.03937C16.9299 2.34461 17.3369 2.61004 17.9209 3.00818L17.9385 3.02146L17.6952 2.77815L17.7306 2.76045C17.8678 2.68967 17.9961 2.62774 18.1243 2.57023L17.8899 2.33577C17.7749 2.38885 17.651 2.44636 17.5227 2.51272L17.505 2.52157L17.2661 2.28268L17.3015 2.26499C17.421 2.20305 17.536 2.14554 17.651 2.09688L17.4475 1.89339C17.3192 1.9509 17.1865 2.01725 17.0449 2.08803L17.0272 2.09688L16.7795 1.84915L16.8149 1.83145C17.0228 1.72528 17.2175 1.63238 17.3988 1.55718L17.4165 1.54833L18.5933 2.73391L18.5535 2.7516C18.3721 2.82681 18.173 2.91971 17.9651 3.02588L17.9474 3.03473L17.9562 3.03915L17.912 3.06127C17.8501 3.09224 17.7881 3.12763 17.7218 3.16302L17.7085 3.17186L17.6952 3.16302C17.5935 3.09224 17.4917 3.02588 17.3856 2.9551C17.2927 3.00818 17.1953 3.06127 17.098 3.11878C17.1555 3.20726 17.2086 3.30015 17.2617 3.38863L17.275 3.41517L17.2484 3.42845C17.1777 3.46826 17.1069 3.5125 17.0361 3.55674L17.0272 3.57001ZM16.2929 2.18978C16.5981 2.70294 16.8149 3.08339 17.0494 3.49038C17.1024 3.45499 17.16 3.42402 17.213 3.39305C17.16 3.30458 17.1024 3.21168 17.0449 3.1232L17.0317 3.09666L17.0582 3.08339C17.1688 3.01703 17.2794 2.9551 17.3856 2.89759L17.4033 2.88874L17.4165 2.89759C17.5183 2.96837 17.62 3.03473 17.7262 3.10551C17.7704 3.08339 17.8147 3.05685 17.8545 3.03473C17.2971 2.6587 16.9034 2.3977 16.4521 2.10573C16.3991 2.12785 16.346 2.15881 16.2929 2.18978ZM17.797 2.79584L17.9607 2.96395C18.1465 2.86662 18.3278 2.78257 18.4959 2.71179L17.4077 1.61911C17.244 1.68989 17.0671 1.76952 16.8813 1.86684L17.0405 2.03052C17.1821 1.95974 17.3148 1.89339 17.4431 1.83588L17.4608 1.82703L17.7527 2.119L17.7129 2.1367C17.6023 2.18536 17.4829 2.24287 17.3635 2.30038L17.5139 2.45521C17.6422 2.38885 17.766 2.33134 17.881 2.27826L17.8987 2.26941L18.2217 2.59235L18.1819 2.61004C18.0668 2.66313 17.9341 2.72506 17.797 2.79584Z" fill="white"/>
<path d="M7.14895 4.23357L6.41018 8.21057L4.93263 6.73302L5.49002 4.29108L4.78222 4.30878L3.64088 5.44127L2.47742 4.27781L6.33497 0.420258L7.50285 1.59256L6.71542 2.36673C6.34824 2.73391 6.45441 2.61446 6.10936 2.94182L8.58226 2.67197L10.0465 4.13625L7.14895 4.23357Z" fill="white"/>
<path d="M9.60865 11.409L6.71106 8.51142L10.5686 4.65387L11.7542 5.83945L8.90526 8.68838L10.6173 10.4004L9.60865 11.409Z" fill="white"/>
<path d="M19.7613 13.8465C20.9425 15.0277 20.9911 16.5052 19.7878 17.7085C18.5049 18.9914 17.1424 18.9427 15.8816 17.6819L14.1785 15.9788L18.036 12.1212L19.7613 13.8465ZM16.3152 16.1646L16.7797 16.6291C17.3592 17.2086 18.0095 17.1334 18.589 16.5539C19.2437 15.8992 19.1862 15.209 18.5801 14.603L18.2262 14.2491L16.3152 16.1646Z" fill="white"/>
<path d="M4.30916 17.4519C4.2605 17.4519 4.14106 17.4519 4.83559 18.1332C5.53455 18.8145 5.5434 18.6419 5.53898 18.6021C5.53013 18.5269 5.42838 18.3898 5.23816 18.1819C5.20277 18.1863 5.16295 18.1863 5.13199 18.1863C5.30894 18.3765 5.30894 18.4119 5.29567 18.434C5.26912 18.4384 5.21604 18.4429 4.9108 18.1553C4.90637 18.1509 4.45515 17.7218 4.49054 17.6687C4.49054 17.6687 4.5392 17.62 4.80905 17.8678C4.84444 17.8678 4.87983 17.8678 4.91522 17.8633C4.57901 17.5404 4.36225 17.4564 4.30916 17.4519Z" fill="white"/>
<path d="M5.21604 17.9739L4.90195 17.6599C4.94177 17.651 4.986 17.6466 5.02582 17.6333C5.0966 17.62 5.15853 17.6422 5.24258 17.7174C5.24258 17.7174 5.42396 17.8722 5.3753 17.9297C5.36203 17.943 5.34433 17.9474 5.33106 17.9518C5.29567 17.9607 5.25586 17.9651 5.21604 17.9739ZM4.87098 17.4298C4.76924 17.4519 4.67634 17.4696 4.59229 17.4785L5.72478 18.6154C5.76459 18.611 5.80441 18.6066 5.84422 18.5977L5.40184 18.1509C5.43723 18.1465 5.47704 18.1376 5.51244 18.1288C5.5434 18.1244 5.59649 18.1155 5.68939 18.1819C5.8398 18.288 5.95039 18.434 6.09638 18.5402C6.14504 18.5269 6.1937 18.5137 6.24236 18.496C6.1937 18.4694 6.13177 18.4163 5.99463 18.2836C5.81325 18.1111 5.69381 18.0138 5.58764 18.0005C5.61861 17.8457 5.14084 17.3723 4.87098 17.4298Z" fill="white"/>
<path d="M5.69815 17.129C5.50793 17.2175 5.32655 17.2883 5.15845 17.3458L6.29094 18.4827C6.45904 18.4252 6.64042 18.3544 6.83507 18.2659L6.62715 18.058C6.49001 18.1199 6.3573 18.1774 6.22901 18.2261L5.95031 17.9474C6.06533 17.9032 6.18477 17.8545 6.30863 17.8014L6.11399 17.6068C5.99012 17.6643 5.87068 17.7129 5.75566 17.7528L5.50793 17.505C5.63179 17.4608 5.76008 17.4033 5.89722 17.3413L5.69815 17.129Z" fill="white"/>
<path d="M6.72897 17.6687C6.58298 17.4475 6.56528 17.4165 6.4193 17.1865C6.59625 17.3104 6.7732 17.4298 6.95016 17.5537C6.87495 17.5935 6.80417 17.6333 6.72897 17.6687ZM6.23792 16.8591C6.17599 16.8945 6.10963 16.9255 6.05212 16.9565C6.3087 17.359 6.54759 17.7306 6.8838 18.2438C6.94131 18.2173 6.99882 18.1907 7.06075 18.1597C6.99882 18.0624 6.93688 17.9695 6.87495 17.8722C6.9767 17.8235 7.07845 17.7705 7.18462 17.7129C7.29079 17.7837 7.39696 17.8589 7.50313 17.9297C7.56949 17.8943 7.63584 17.8545 7.7022 17.8147C7.30406 17.5625 6.85283 17.2706 6.23792 16.8591Z" fill="white"/>
<path d="M7.13605 16.3283C6.87505 16.4964 6.62289 16.6468 6.38843 16.7751L6.60077 16.9874C6.68925 16.9388 6.77772 16.8901 6.8662 16.837L7.78635 17.7616C7.85271 17.7218 7.91906 17.682 7.98542 17.6422L7.06527 16.7176C7.15817 16.6601 7.25107 16.6026 7.34839 16.5406L7.13605 16.3283Z" fill="white"/>
<path d="M7.39252 16.1602C7.32174 16.2088 7.25096 16.2531 7.18018 16.2973L8.31267 17.4342C8.38345 17.39 8.45423 17.3413 8.52501 17.2971L7.39252 16.1602Z" fill="white"/>
<path d="M8.35255 15.4966C8.27292 15.5541 8.1933 15.6116 8.11367 15.6691C8.27292 15.9478 8.42776 16.2133 8.67549 16.6335C8.48527 16.5141 8.13579 16.2973 7.65359 15.9921C7.57839 16.0452 7.50318 16.0938 7.42798 16.1425C7.91017 16.4477 8.2862 16.6866 8.88783 17.0626C8.97188 17.0051 9.05594 16.9476 9.13999 16.8857C8.87898 16.4389 8.67107 16.0673 8.35255 15.4966Z" fill="white"/>
<path d="M9.19752 14.8507C8.91882 15.0675 8.64897 15.2754 8.38354 15.4701L9.51604 16.607C9.78589 16.4123 10.0602 16.2 10.3433 15.9788L10.1354 15.7709C9.9363 15.9301 9.73723 16.0806 9.54258 16.2265L9.26388 15.9478C9.44083 15.8151 9.61778 15.6824 9.79916 15.5409L9.60451 15.3462C9.42314 15.4878 9.24619 15.6249 9.06923 15.7532L8.8215 15.5055C9.01172 15.3639 9.20637 15.2135 9.40544 15.0587L9.19752 14.8507Z" fill="white"/>
<path d="M10.8741 15.1781L10.1574 14.457C10.2194 14.4084 10.2813 14.3553 10.3432 14.3022C10.8343 13.9262 11.2413 14.5455 11.2236 14.7534C11.2147 14.8861 11.113 14.9746 11.0599 15.0233C10.998 15.0764 10.936 15.1294 10.8741 15.1781ZM10.1663 14.0677C10.0114 14.2004 9.85662 14.3243 9.70178 14.4526L10.8343 15.5895C10.9891 15.4656 11.1439 15.3374 11.2988 15.2046C11.9889 14.5765 11.1572 13.8864 10.7325 13.8554C10.4494 13.8421 10.2415 14.0058 10.1663 14.0677Z" fill="white"/>
<path d="M11.7367 12.6875C11.4358 12.9662 11.135 13.2316 10.8386 13.4926L11.9711 14.6296C12.2719 14.3685 12.5728 14.0943 12.8824 13.8156L12.6745 13.6077C12.4577 13.8067 12.241 14.0058 12.0242 14.196L11.7455 13.9173C11.9401 13.7448 12.1348 13.5678 12.3339 13.3909L12.1392 13.1962C11.9446 13.3776 11.7455 13.5501 11.5509 13.7227L11.3031 13.4749C11.5155 13.2891 11.7278 13.0945 11.9401 12.8998L11.7367 12.6875Z" fill="white"/>
<path d="M16.28 7.90095C15.8509 8.45393 16.28 8.83437 16.5322 8.81225C16.6472 8.8034 16.749 8.73705 16.9348 8.61761C17.0807 8.52471 17.1781 8.46277 17.2312 8.4672C17.3417 8.47604 17.4745 8.653 17.2931 8.86976C17.0896 9.11749 16.9259 8.97151 16.8596 8.914C16.7888 8.99805 16.718 9.0821 16.6428 9.16616C17.1736 9.64393 17.6603 8.94497 17.6558 8.60876C17.6514 8.33006 17.4214 8.17523 17.4169 8.1708C17.2046 8.03366 17.0409 8.13541 16.7667 8.32121C16.6207 8.42296 16.4349 8.54682 16.3818 8.33006C16.3508 8.19735 16.5189 7.95846 16.6959 7.99385C16.7401 8.0027 16.7888 8.04251 16.8065 8.05578C16.8728 7.97616 16.9348 7.89653 16.9967 7.82132C16.749 7.60456 16.5056 7.62668 16.28 7.90095Z" fill="white"/>
<path d="M17.4213 6.4986C17.3594 6.58265 17.293 6.67112 17.2267 6.7596C17.3107 6.98964 17.3771 7.17544 17.4832 7.47183C17.2222 7.3922 17.1249 7.36124 16.8285 7.27276C16.7533 7.36566 16.6781 7.45856 16.6029 7.55146C16.8905 7.62666 17.1868 7.70629 17.6292 7.83016L18.0716 8.27254C18.1335 8.19291 18.1955 8.11328 18.2574 8.03365L17.8239 7.5957C17.7044 7.28161 17.5983 6.98079 17.4213 6.4986Z" fill="white"/>
<path d="M18.0893 5.57404C18.0406 5.64482 17.992 5.7156 17.9433 5.78638L18.6998 6.54727C18.5051 6.48091 18.1424 6.36147 17.6425 6.20664C17.585 6.28627 17.5275 6.36147 17.47 6.4411L18.6025 7.57802C18.66 7.50281 18.7131 7.42761 18.7661 7.35683L18.0097 6.59151C18.2264 6.65787 18.5892 6.77288 19.0714 6.93214C19.1245 6.85694 19.1731 6.78616 19.2218 6.71538L18.0893 5.57404Z" fill="white"/>
<path d="M19.2439 6.1624L18.5272 5.44133C18.5582 5.38824 18.5936 5.33958 18.6245 5.29092C18.8811 4.93259 19.3677 5.56519 19.3943 5.79081C19.4076 5.89698 19.3722 5.96333 19.3412 6.012C19.3102 6.06066 19.2748 6.10932 19.2439 6.1624ZM18.4299 5.05646C18.3503 5.18475 18.2662 5.31304 18.1777 5.44133L19.3102 6.57824C19.3987 6.44553 19.4828 6.31724 19.5624 6.19337C19.9074 5.57404 18.9563 4.77776 18.6334 4.88393C18.5228 4.9149 18.452 5.02107 18.4299 5.05646Z" fill="white"/>
<path d="M18.8546 4.3398C18.8192 4.40173 18.7838 4.46366 18.7484 4.53002L19.8809 5.66694C19.9163 5.60058 19.9517 5.53865 19.9871 5.47671L18.8546 4.3398Z" fill="white"/>
<path d="M19.0757 3.8399C18.8545 4.40172 19.8012 5.28206 20.1374 5.15377C20.1419 5.15377 20.5887 4.95912 19.9472 4.23362C19.9251 4.2867 19.903 4.33979 19.8764 4.39287C20.2126 4.78659 20.0091 4.89276 19.9295 4.88834C19.642 4.8618 19.0978 4.18496 19.3146 4.01243C19.3942 3.95049 19.5181 4.04782 19.5623 4.08321C19.5889 4.03012 19.611 3.97704 19.6331 3.92395C19.2438 3.5789 19.1067 3.76912 19.0757 3.8399Z" fill="white"/>
<path d="M20.0357 4.01685C19.9074 3.84432 19.7747 3.67622 19.6464 3.50369C19.7968 3.61871 19.8853 3.68507 20.0977 3.8399C20.08 3.89741 20.0578 3.95934 20.0357 4.01685ZM19.3943 3.14979C19.3766 3.19845 19.3633 3.24711 19.3412 3.3002C19.6155 3.6718 19.9296 4.1009 20.3675 4.71139C20.3896 4.6583 20.4117 4.60079 20.4339 4.55213C20.3587 4.45038 20.279 4.34421 20.2038 4.24247C20.2348 4.15841 20.2658 4.07436 20.2879 3.99473C20.3764 4.06109 20.4648 4.13187 20.5533 4.19823C20.5666 4.14957 20.5799 4.1009 20.5887 4.05667C20.2304 3.77354 19.8853 3.51254 19.3943 3.14979Z" fill="white"/>
<path d="M19.5137 2.57027C19.5093 2.7074 19.4783 2.85781 19.4341 3.02592L19.6464 3.23826C19.6641 3.17633 19.6774 3.11882 19.6907 3.06131L20.6108 3.98588C20.6197 3.94164 20.6285 3.90183 20.6329 3.86202L19.7128 2.93744C19.7216 2.88436 19.7261 2.83127 19.7261 2.78261L19.5137 2.57027Z" fill="white"/>
<path d="M19.4784 2.21637C19.5094 2.30927 19.5226 2.41544 19.5182 2.53488L20.6507 3.6718C20.6551 3.54793 20.6419 3.44176 20.6065 3.34886L20.3985 3.14094C20.4207 3.2073 20.4339 3.27808 20.4384 3.36213L20.1597 3.08343C20.1552 3.00823 20.142 2.94187 20.1243 2.88436L19.9296 2.68972C19.9473 2.75165 19.9606 2.81801 19.965 2.88879L19.7173 2.64105C19.7129 2.56143 19.6996 2.49065 19.6775 2.42429L19.4784 2.21637Z" fill="white"/>
<path d="M18.5049 1.71646C18.5448 1.70761 18.589 1.69876 18.6244 1.69434C18.589 1.6501 18.4784 1.52181 18.5271 1.48642C18.6421 1.40237 19.3322 2.0969 19.341 2.22519C19.341 2.22519 19.3145 2.36233 18.9385 2.01285C18.8987 2.01728 18.8588 2.02612 18.8146 2.03497C19.3941 2.57467 19.5666 2.45523 19.5666 2.45081C19.664 2.36676 19.226 1.93322 19.0358 1.74742C18.7084 1.43776 18.474 1.27408 18.3324 1.26965C18.2484 1.28292 18.2218 1.40679 18.5049 1.71646Z" fill="white"/>
<path d="M18.1024 1.59702L18.2617 1.75627L18.4121 1.90668C18.4209 1.90226 18.4298 1.90226 18.4342 1.89783L18.4121 1.90668L18.589 2.08363L18.8147 2.30925L19.0358 2.53044C19.0801 2.51717 19.1464 2.49947 19.1907 2.49062L18.0582 1.35371C18.0051 1.36698 17.952 1.38025 17.8989 1.39352L18.1024 1.59702Z" fill="white"/>
<path d="M15.9659 10.7101C15.8862 10.7941 15.8066 10.8826 15.727 10.9666L14.5945 9.82972C14.6785 9.74125 14.7626 9.64835 14.8466 9.55987C15.1696 9.63065 15.435 9.68816 15.6473 9.73682L15.1342 9.22366L9.85217 11.6568L11.051 12.8556L11.6527 12.5636L11.7898 12.4973L12.3339 13.0414L12.6259 13.3334L12.8648 13.5723L12.9356 13.643L13.0329 13.7404L12.971 13.8642L12.6746 14.4747L13.8734 15.6736L16.3109 10.396L16.1738 10.2588L16.0455 10.1305C15.8243 10.0819 15.5412 10.0199 15.2094 9.94917L15.9659 10.7101ZM13.5328 13.2007C13.3735 13.3555 13.1612 13.4617 12.9444 13.4263C12.8382 13.4086 12.7276 13.3599 12.6215 13.2626C12.648 13.236 12.679 13.2095 12.7055 13.183C12.763 13.1299 12.825 13.0724 12.8869 13.0149C12.9533 13.0724 13.1037 13.2007 13.3426 12.9972C13.347 12.9927 13.3514 12.9883 13.3558 12.9839C13.6213 12.7494 13.462 12.5725 13.3735 12.5636C13.3072 12.5548 13.2408 12.5858 13.086 12.6698C13.0594 12.6831 13.0285 12.7008 12.9975 12.7185C12.7763 12.8379 12.6347 12.9131 12.4843 12.9043C12.4622 12.9043 12.4357 12.8998 12.4091 12.891C12.2941 12.8556 12.157 12.7494 12.1127 12.5946C12.0685 12.4442 12.1127 12.2407 12.3516 12.0018C12.3782 11.9753 12.4091 11.9487 12.4445 11.9222C12.5905 11.8072 12.7763 11.7275 12.971 11.7895C13.0417 11.8116 13.1125 11.8514 13.1833 11.9133C13.17 11.9266 13.1523 11.9443 13.1391 11.9576C13.0683 12.0239 13.0019 12.0903 12.9311 12.1566C12.8913 12.1257 12.8559 12.1036 12.7896 12.0947C12.7409 12.0903 12.6834 12.1036 12.6303 12.1345C12.5109 12.2009 12.4047 12.338 12.418 12.4353C12.4534 12.6565 12.6746 12.5282 12.8515 12.4265C12.8604 12.4221 12.8648 12.4176 12.8736 12.4132C13.0683 12.3026 13.2364 12.2097 13.3912 12.2009C13.4576 12.1965 13.5195 12.2053 13.5814 12.2363C13.6257 12.2584 13.692 12.3115 13.7407 12.3778C13.7805 12.4353 13.8159 12.5061 13.8247 12.5858C13.8424 12.7671 13.723 13.0149 13.5328 13.2007ZM14.1698 12.5282C14.1565 12.5415 14.1388 12.5592 14.1211 12.5725L13.8026 12.254L13.201 11.6479L12.9886 11.4356C13.0771 11.3471 13.17 11.2586 13.2585 11.1701L13.5549 11.4665L13.9884 11.9045L14.2848 12.2053L14.3866 12.3115C14.3202 12.3823 14.245 12.4575 14.1698 12.5282ZM15.4616 11.2188C15.4173 11.1878 15.3554 11.148 15.3067 11.117C15.3377 11.6125 14.8688 11.8691 14.6122 11.8912C14.5458 11.8956 14.4795 11.8912 14.4087 11.8779C14.2937 11.8558 14.1786 11.8072 14.0769 11.7364C13.9398 11.6435 13.8292 11.5152 13.7584 11.3604C13.7009 11.2321 13.6743 11.0861 13.6965 10.9313C13.7186 10.7676 13.7982 10.595 13.9486 10.4269C14.0504 10.3208 14.4131 10.0023 14.8466 10.3031C14.767 10.3871 14.683 10.4756 14.5989 10.5641C14.4529 10.4756 14.3114 10.4933 14.1786 10.6172C14.1079 10.6835 14.0636 10.7543 14.0371 10.8251C13.9973 10.9489 14.0238 11.0772 14.0857 11.1923C14.13 11.2719 14.1875 11.3427 14.2583 11.4046C14.3423 11.4798 14.4397 11.5329 14.5281 11.555C14.5502 11.5594 14.5679 11.5639 14.5901 11.5639C14.8776 11.586 15.2536 11.2188 14.9617 10.8693C14.8732 10.9622 14.8201 11.0197 14.7272 11.1126L14.7007 11.0861L14.5458 10.9268C14.6741 10.7941 14.7847 10.6791 14.9042 10.5508C14.9351 10.5154 14.9705 10.48 15.0059 10.4446L15.6164 11.0595C15.5721 11.1082 15.5191 11.1613 15.4616 11.2188Z" fill="white"/>
<path d="M15.5191 8.81224C15.4439 8.89629 15.3687 8.98034 15.2935 9.0644L16.0499 9.82529C15.988 9.81202 15.9128 9.79432 15.8287 9.77663C15.7712 9.76336 15.7093 9.75009 15.6474 9.73681L15.7757 9.8651L16.0411 10.1305C16.1074 10.1438 16.1649 10.1571 16.2225 10.1703C16.3021 10.188 16.3684 10.2013 16.4171 10.2146C16.4967 10.1261 16.5719 10.0421 16.6516 9.95358L15.5191 8.81224Z" fill="white"/>
</svg>
