<svg width="20" height="20" viewBox="0 0 20 20" fill="none" xmlns="http://www.w3.org/2000/svg">
<path d="M16.9429 5.77778C16.7071 5.59184 16.4259 5.33787 15.9134 5.27438C15.4327 5.21089 14.9429 5.53288 14.6119 5.74603C14.2808 5.95919 13.6549 6.58504 13.3964 6.77551C13.1379 6.96599 12.4758 7.14286 11.41 7.78232C10.3443 8.42177 6.16287 11.1066 6.16287 11.1066L7.25131 11.1202L2.3987 13.6191H2.88396L2.18555 14.1497C2.18555 14.1497 2.80233 14.3129 3.31933 13.9864V14.1361C3.31933 14.1361 9.09711 11.8594 10.2128 12.449L9.53249 12.6485C9.59144 12.6485 10.6889 12.7211 10.6889 12.7211C10.7156 12.9484 10.792 13.167 10.9127 13.3614C11.0334 13.5558 11.1955 13.7212 11.3874 13.8458C12.0495 14.2812 12.0631 14.5215 12.0631 14.5215C12.0631 14.5215 11.7184 14.6621 11.7184 14.839C11.7184 14.839 12.2264 14.6848 12.698 14.6984C12.9974 14.7098 13.2943 14.757 13.5824 14.839C13.5824 14.839 13.5461 14.6485 13.088 14.5215C12.63 14.3946 12.1765 13.8957 11.9543 13.6236C11.8181 13.4504 11.7294 13.2447 11.6968 13.0269C11.6642 12.809 11.6889 12.5864 11.7683 12.381C11.927 11.9683 12.4803 11.7415 13.6232 11.1519C14.9701 10.4535 15.2785 9.93651 15.469 9.53288C15.6595 9.12925 15.9406 8.32653 16.0994 7.95012C16.2989 7.46486 16.5438 7.20635 16.7479 7.05216C16.952 6.89796 17.859 6.55783 17.859 6.55783C17.859 6.55783 17.1651 5.95465 16.9429 5.77778Z" fill="white"/>
</svg>
