<svg width="61" height="61" viewBox="0 0 61 61" fill="none" xmlns="http://www.w3.org/2000/svg">
<circle cx="30.5" cy="30.5" r="30.5" fill="#EAEAEA"/>
<path fill-rule="evenodd" clip-rule="evenodd" d="M23.0229 27.1041C24.4256 25.6749 26.334 24.8667 28.3301 24.8667C30.3261 24.8667 32.2345 25.6749 33.6373 27.1041C34.2176 27.6953 34.2087 28.645 33.6175 29.2253C33.0263 29.8056 32.0766 29.7968 31.4963 29.2056C30.6514 28.3448 29.512 27.8667 28.3301 27.8667C27.1482 27.8667 26.0087 28.3448 25.1639 29.2055M25.1639 29.2055L20.926 33.5236C20.0803 34.3856 19.6001 35.5609 19.6001 36.7921C19.6001 38.0233 20.0802 39.1985 20.926 40.0605C21.7708 40.9216 22.9105 41.4 24.0927 41.4C25.2748 41.4 26.4145 40.9216 27.2593 40.0605L29.3777 37.9014C29.9579 37.31 30.9076 37.301 31.4989 37.8812C32.0903 38.4613 32.0993 39.411 31.5191 40.0024L29.4008 42.1615C27.998 43.5914 26.0892 44.4 24.0927 44.4C22.0962 44.4 20.1874 43.5914 18.7846 42.1615C17.3827 40.7327 16.6001 38.8007 16.6001 36.7921C16.6001 34.7834 17.3827 32.8515 18.7846 31.4226L23.0229 27.1041" fill="#A2A9AC"/>
<path fill-rule="evenodd" clip-rule="evenodd" d="M31.5996 18.8385C33.0024 17.4086 34.9112 16.6 36.9077 16.6C38.9042 16.6 40.813 17.4086 42.2158 18.8385C43.6177 20.2673 44.4003 22.1993 44.4003 24.2079C44.4003 26.2166 43.6177 28.1485 42.2158 29.5774L37.9776 33.8958C36.5748 35.3251 34.6663 36.1333 32.6703 36.1333C30.6743 36.1333 28.7659 35.3251 27.3631 33.8959C26.7828 33.3047 26.7916 32.355 27.3829 31.7747C27.9741 31.1944 28.9238 31.2032 29.5041 31.7945C30.3489 32.6552 31.4884 33.1333 32.6703 33.1333C33.8522 33.1333 34.9917 32.6552 35.8365 31.7945L40.0744 27.4764C40.92 26.6144 41.4003 25.4391 41.4003 24.2079C41.4003 22.9767 40.9201 21.8015 40.0744 20.9395C39.2295 20.0784 38.0899 19.6 36.9077 19.6C35.7255 19.6 34.5858 20.0784 33.741 20.9395L31.6227 23.0986C31.0425 23.69 30.0928 23.699 29.5014 23.1188C28.9101 22.5387 28.901 21.589 29.4812 20.9976L31.5996 18.8385Z" fill="#A2A9AC"/>
</svg>
