<svg width="19" height="20" viewBox="0 0 19 20" fill="none" xmlns="http://www.w3.org/2000/svg">
<path d="M9.40225 5.22972C11.0389 5.22972 12.3656 4.45809 12.3656 3.50625C12.3656 2.5544 11.0389 1.78278 9.40225 1.78278C7.76564 1.78278 6.4389 2.5544 6.4389 3.50625C6.4389 4.45809 7.76564 5.22972 9.40225 5.22972Z" fill="white" fill-opacity="0.5"/>
<path d="M9.40225 18.2157C11.0389 18.2157 12.3656 17.4441 12.3656 16.4923C12.3656 15.5404 11.0389 14.7688 9.40225 14.7688C7.76564 14.7688 6.4389 15.5404 6.4389 16.4923C6.4389 17.4441 7.76564 18.2157 9.40225 18.2157Z" fill="white" fill-opacity="0.5"/>
<path d="M5.27258 7.61541C6.09088 6.19811 6.08557 4.66308 5.26071 4.18684C4.43586 3.71059 3.10381 4.47347 2.28551 5.89077C1.4672 7.30808 1.47251 8.8431 2.29737 9.31935C3.12223 9.79559 4.45427 9.03272 5.27258 7.61541Z" fill="white" fill-opacity="0.5"/>
<path d="M16.5176 14.1077C17.3359 12.6903 17.3311 11.1556 16.5068 10.6797C15.6825 10.2037 14.3509 10.9669 13.5326 12.3842C12.7143 13.8015 12.7191 15.3363 13.5434 15.8122C14.3677 16.2881 15.6993 15.525 16.5176 14.1077Z" fill="white" fill-opacity="0.5"/>
<path d="M5.26114 15.8118C6.086 15.3356 6.09131 13.8006 5.273 12.3832C4.4547 10.9659 3.12265 10.2031 2.2978 10.6793C1.47294 11.1556 1.46763 12.6906 2.28593 14.1079C3.10424 15.5252 4.43628 16.2881 5.26114 15.8118Z" fill="white" fill-opacity="0.5"/>
<path d="M16.5075 9.31973C17.3318 8.84381 17.3367 7.30904 16.5184 5.89174C15.7001 4.47443 14.3685 3.71129 13.5442 4.18721C12.7199 4.66314 12.715 6.1979 13.5333 7.61521C14.3516 9.03251 15.6832 9.79565 16.5075 9.31973Z" fill="white" fill-opacity="0.5"/>
</svg>
