<?xml version="1.0" encoding="utf-8"?>
<!-- Generator: Adobe Illustrator 26.0.3, SVG Export Plug-In . SVG Version: 6.00 Build 0)  -->
<svg version="1.1" id="Слой_1" xmlns="http://www.w3.org/2000/svg" xmlns:xlink="http://www.w3.org/1999/xlink" x="0px" y="0px"
	 viewBox="0 0 134.81 137.87" style="enable-background:new 0 0 134.81 137.87;" xml:space="preserve">
<style type="text/css">
	.st0{fill:#000000;}
</style>
<path class="st0" d="M3.61,46.46v42.18h15.68c2.98,0,5.39,2.41,5.39,5.39v15.7h15.7c2.98,0,5.39,2.41,5.39,5.39v15.7h42.2v-21.1
	h-36.8c-2.98,0-5.39-2.41-5.39-5.39v-7.91c0-4.3,3.49-7.79,7.79-7.79h23.31c6.13,0,11.09-4.97,11.09-11.09V54.26
	c0-4.3,3.49-7.79,7.79-7.79h7.89c2.98,0,5.39,2.41,5.39,5.39v36.78h21.1V46.46h-15.7c-2.98,0-5.39-2.41-5.39-5.39v-15.7H93.38
	c-2.98,0-5.39-2.41-5.39-5.39V4.26h-42.2v21.1h36.8c2.98,0,5.39,2.41,5.39,5.39v7.91c0,4.3-3.49,7.79-7.79,7.79H56.88
	c-6.13,0-11.09,4.97-11.09,11.09v23.29c0,4.3-3.49,7.79-7.79,7.79h-7.91c-2.98,0-5.39-2.41-5.39-5.39V46.46H3.61z"/>
</svg>