<svg width="61" height="61" viewBox="0 0 61 61" fill="none" xmlns="http://www.w3.org/2000/svg">
<circle cx="30.5" cy="30.5" r="30.5" fill="#E5017C"/>
<path d="M15.26 37.02V25.66L16 27L13.08 28.42L12.5 25.76L16.4 23.8H18.22V37.02H15.26ZM12.8 38V35.3H20.74V38H12.8Z" fill="#F5F5F5"/>
<path d="M25.9198 33.86L25.2798 31.14L32.3598 24H35.9998L25.9198 33.86ZM23.6598 38V24H26.6598V38H23.6598ZM32.7398 38L27.4998 31.06L29.5598 29.26L36.2998 38H32.7398Z" fill="#F5F5F5"/>
<path d="M42.2883 38L36.7083 24H39.8883L42.8083 31.58C42.9683 31.9933 43.1016 32.36 43.2083 32.68C43.3283 32.9867 43.4283 33.28 43.5083 33.56C43.6016 33.8267 43.6883 34.0933 43.7683 34.36C43.8483 34.6133 43.9283 34.8933 44.0083 35.2L43.4283 35.22C43.5349 34.8067 43.6349 34.4267 43.7283 34.08C43.8349 33.72 43.955 33.3467 44.0883 32.96C44.235 32.56 44.4083 32.1 44.6083 31.58L47.3683 24H50.5283L44.9083 38H42.2883Z" fill="#F5F5F5"/>
</svg>
