<svg width="61" height="61" viewBox="0 0 61 61" fill="none" xmlns="http://www.w3.org/2000/svg">
<circle cx="30.5" cy="30.5" r="30.5" fill="#D10026"/>
<path fill-rule="evenodd" clip-rule="evenodd" d="M20.7066 15.0841C20.2009 15.2204 19.9022 15.4028 19.4773 15.8347C19.0429 16.2763 18.6371 17.0127 18.3861 17.8147L18.2515 18.2451L17.8215 18.3799C16.2901 18.86 15.293 19.735 15.0681 20.7964C14.9767 21.2272 14.9821 21.4249 15.0977 21.8956C15.389 23.0816 16.2372 23.8961 17.368 24.0755C18.0706 24.1871 18.2297 24.191 19.3253 24.1242L20.4115 24.058L20.7785 24.449C20.9803 24.6641 21.2048 24.8899 21.2773 24.9509C21.4467 25.0933 21.797 25.1718 22.0673 25.1279C22.3532 25.0814 22.7189 24.726 22.803 24.4126C22.9207 23.9743 22.8135 23.7654 22.0959 23.0358C21.1915 22.1162 21.2363 22.1299 19.2118 22.1536C17.7234 22.1711 17.6223 22.1653 17.4313 22.051C17.192 21.9078 16.998 21.5614 16.998 21.2774C16.998 20.8639 17.6856 20.4364 18.8166 20.1466C19.1783 20.0539 19.5451 19.9317 19.6316 19.8749C19.8523 19.7302 20.0113 19.4439 20.0884 19.0525C20.3172 17.8904 20.8376 16.9904 21.2809 16.9904C21.5646 16.9904 21.9107 17.1846 22.0537 17.4241C22.1679 17.6153 22.1738 17.7165 22.1563 19.2063C22.1325 21.2327 22.1189 21.1879 23.0376 22.0932C23.7436 22.789 23.9496 22.8999 24.3619 22.8068C24.8341 22.7002 25.1371 22.3144 25.1297 21.8289C25.1244 21.4755 25.043 21.3408 24.4857 20.7633L24.0619 20.324L24.1282 19.3088C24.2293 17.7618 24.1046 16.9595 23.6534 16.2557C23.3013 15.7064 22.6258 15.2558 21.8967 15.0838C21.4228 14.972 21.1224 14.972 20.7066 15.0841ZM39.0341 15.1012C38.2909 15.3091 37.6899 15.7202 37.3466 16.2557C36.8925 16.964 36.7716 17.7552 36.8735 19.3503L36.9411 20.4072L36.5505 20.7746C36.0209 21.2726 35.9469 21.3686 35.8856 21.6375C35.7269 22.334 36.3926 22.9872 37.0713 22.8006C37.252 22.751 37.4728 22.5757 37.9624 22.0932C38.8811 21.1879 38.8675 21.2327 38.8437 19.2063C38.8265 17.7399 38.8335 17.6131 38.9408 17.4355C39.0814 17.203 39.4411 16.9904 39.6941 16.9904C40.127 16.9904 40.557 17.6693 40.8501 18.8156C40.942 19.1749 41.0636 19.5399 41.1203 19.6265C41.2649 19.8475 41.5509 20.0066 41.9418 20.0837C43.1029 20.3127 44.002 20.8337 44.002 21.2774C44.002 21.5614 43.808 21.9078 43.5687 22.051C43.3777 22.1653 43.2766 22.1711 41.7882 22.1536C39.7639 22.1299 39.8087 22.1162 38.9037 23.0358C38.4131 23.5344 38.2472 23.7446 38.197 23.9317C38.1046 24.2758 38.2068 24.603 38.4919 24.8752C38.7456 25.1175 39.0179 25.191 39.3679 25.112C39.6349 25.0518 39.7404 24.971 40.2278 24.4546L40.6012 24.0589L41.6507 24.1258C43.5484 24.2468 44.4036 24.0512 45.1211 23.3322C45.5084 22.944 45.8412 22.2913 45.9433 21.7194C46.1548 20.5351 45.4928 19.4365 44.1811 18.7948C43.8661 18.6407 43.4149 18.454 43.1785 18.3799L42.7485 18.2451L42.6129 17.8147C41.9524 15.7172 40.5726 14.671 39.0341 15.1012ZM29.0469 21.5983C27.4288 21.8215 26.0071 22.37 24.9162 23.1918C24.3289 23.6342 23.5751 24.4255 23.1739 25.0204C22.1971 26.4694 21.7131 28.2978 21.7139 30.5355C21.7144 31.9478 21.9003 32.9116 22.3569 33.8693C22.8254 34.8518 23.4807 35.546 24.3835 36.0161C24.8418 36.2547 25.6141 36.5053 25.8916 36.5053H26.0385L26.0029 38.5008C25.9678 40.4668 25.9693 40.5003 26.0994 40.7584C26.3474 41.2504 27.0445 41.4388 27.4644 41.1275C27.9478 40.7692 27.9729 40.5819 27.9462 37.5356C27.927 35.3526 27.9249 35.3206 27.7882 35.1005C27.5996 34.7968 27.2326 34.6265 26.7669 34.6265C26.3042 34.6265 25.5355 34.4313 25.1822 34.2241C23.9484 33.5004 23.4308 31.6651 23.755 29.1638C23.8723 28.2587 24.0677 27.5505 24.3843 26.8837C24.6897 26.2403 24.9193 25.9066 25.4104 25.3926C25.9213 24.8578 26.4091 24.5108 27.1318 24.1681C28.195 23.664 29.5962 23.4237 31.0146 23.5022C32.8542 23.6038 34.2669 24.1456 35.3569 25.1673C36.4416 26.184 37.0165 27.4009 37.245 29.1638C37.5692 31.6651 37.0516 33.5004 35.8178 34.2241C35.4645 34.4313 34.6958 34.6265 34.2331 34.6265C33.7674 34.6265 33.4004 34.7968 33.2118 35.1005L33.0732 35.3235V37.9295C33.0732 40.2408 33.0846 40.5561 33.1734 40.7173C33.5769 41.4494 34.5949 41.4593 34.9191 40.7343C35.0249 40.4978 35.0301 40.349 34.9969 38.4931L34.9615 36.5053H35.1084C35.3859 36.5053 36.1582 36.2547 36.6165 36.0161C38.0454 35.272 38.921 33.8863 39.2178 31.8993C39.3604 30.9449 39.2897 29.2231 39.061 28.0812C38.38 24.6814 36.087 22.407 32.6415 21.7136C32.1182 21.6082 31.7229 21.5773 30.7119 21.5625C30.0126 21.5524 29.2633 21.5684 29.0469 21.5983ZM26.7461 27.8609C26.2762 28.001 26.1689 28.0624 25.8685 28.3631C25.5666 28.6653 25.3643 29.0488 25.24 29.5543C25.145 29.941 25.1406 30.8317 25.232 31.171C25.4182 31.862 25.8776 32.4277 26.5014 32.7344C26.7951 32.8787 26.9087 32.8993 27.4121 32.8993C27.9055 32.8993 28.0293 32.8778 28.2822 32.7485C29.4625 32.1452 29.8393 30.1313 29.0147 28.8334C28.5284 28.068 27.5123 27.6324 26.7461 27.8609ZM33.4693 27.8194C32.1583 28.0937 31.3731 29.3673 31.5832 30.8789C31.6832 31.5989 31.8592 31.9968 32.2512 32.3892C32.6837 32.8221 33.0352 32.9512 33.698 32.9205C34.6795 32.8751 35.4939 32.1893 35.7656 31.1795C35.8559 30.8438 35.8526 29.9313 35.7598 29.5537C35.5728 28.7929 35.169 28.2492 34.5958 27.9865C34.2799 27.8418 33.743 27.7621 33.4693 27.8194ZM30.0744 32.3402C29.7791 32.5011 29.2628 33.1098 29.1487 33.4314C29.0557 33.6937 29.0494 33.7845 29.1078 34.0175C29.192 34.3527 29.4112 34.6532 29.6688 34.7865C29.9605 34.9375 30.9398 34.9522 31.2634 34.8105C31.5703 34.676 31.8002 34.3836 31.8948 34.0071C32.0045 33.5701 31.8554 33.2218 31.3391 32.7089C30.9394 32.312 30.9195 32.3007 30.5781 32.279C30.3556 32.2649 30.1716 32.2872 30.0744 32.3402ZM22.0234 35.4232C21.8742 35.4672 21.5999 35.7021 21.0956 36.2181L20.3797 36.9506L19.3397 36.884C17.0529 36.7375 16.0352 37.1196 15.3771 38.3717C15.1839 38.7393 15 39.3885 15 39.7031C15 40.9622 16.0266 42.0511 17.7304 42.5991L18.2507 42.7664L18.4179 43.2873C18.9069 44.8104 19.7685 45.7472 20.8775 45.9617C21.4513 46.0726 22.1935 45.9165 22.7868 45.5599C23.2253 45.2963 23.428 45.1067 23.6632 44.7398C24.1041 44.0521 24.2286 43.2378 24.1282 41.7006L24.0617 40.6841L24.6995 40.034C25.0504 39.6765 25.3819 39.2967 25.4363 39.1901C25.8408 38.3966 25.0052 37.5091 24.1861 37.8619C24.0789 37.908 23.6202 38.324 23.1667 38.7861C22.0879 39.8858 22.1319 39.7535 22.1563 41.8188C22.1737 43.2943 22.1678 43.3956 22.0537 43.5867C21.9107 43.8261 21.5646 44.0203 21.2809 44.0203C20.8678 44.0203 20.4407 43.3321 20.1511 42.2C20.0586 41.8379 19.9364 41.4708 19.8797 41.3842C19.7347 41.1627 19.4484 41.0037 19.0582 40.9282C17.9035 40.7048 16.998 40.1776 16.998 39.7289C16.998 39.4572 17.2036 39.0992 17.4427 38.9543C17.6202 38.8468 17.7463 38.8399 19.2105 38.8576C21.2881 38.8827 21.1514 38.9318 22.3373 37.7331C23.2908 36.7692 23.392 36.603 23.2932 36.1645C23.1656 35.5979 22.584 35.2584 22.0234 35.4232ZM38.3408 35.4448C37.8617 35.6144 37.5836 36.1247 37.7125 36.5981C37.764 36.7875 37.966 37.0287 38.6627 37.7331C39.8486 38.9318 39.7119 38.8827 41.7895 38.8576C43.5684 38.8361 43.6235 38.8477 43.8752 39.2959C44.1921 39.8604 43.9169 40.2427 42.9027 40.6469C42.6811 40.7352 42.3054 40.8484 42.0678 40.8984C41.3712 41.0451 41.1002 41.2468 40.9767 41.7103C40.6283 43.0187 40.4374 43.4848 40.1113 43.8233C39.8823 44.061 39.6195 44.0832 39.2821 43.8934C38.8348 43.6418 38.8228 43.5847 38.8442 41.8204C38.8693 39.7556 38.913 39.8867 37.8333 38.7861C37.3798 38.324 36.9211 37.908 36.8139 37.8619C36.1795 37.5887 35.4648 38.0581 35.4648 38.7481C35.4648 39.1231 35.624 39.3547 36.362 40.0541L36.9412 40.6029L36.8736 41.6601C36.746 43.6555 37.0096 44.6412 37.8481 45.3046C39.4259 46.5531 41.2801 46.0822 42.1993 44.1996C42.3533 43.8843 42.5397 43.433 42.6137 43.1966L42.7481 42.7668L43.2691 42.5992C44.3703 42.245 45.3524 41.5497 45.6892 40.8858C45.8488 40.5712 46 40.0059 46 39.7236C46 39.3904 45.821 38.7485 45.6229 38.3717C44.9636 37.1174 43.9481 36.7375 41.6489 36.8847L40.5975 36.9521L39.886 36.2187C39.3354 35.651 39.1214 35.4704 38.9393 35.4198C38.6488 35.3391 38.6384 35.3395 38.3408 35.4448ZM29.0828 37.538C28.832 37.6131 28.5089 37.9491 28.4459 38.2001C28.4163 38.3179 28.3741 38.8949 28.3522 39.4823C28.3197 40.3485 28.3288 40.5901 28.4004 40.7614C28.7161 41.5179 29.7426 41.5867 30.1566 40.8791C30.2475 40.7238 30.2756 40.4867 30.3142 39.5527C30.3413 38.8955 30.3379 38.3314 30.3061 38.2163C30.22 37.904 29.9333 37.6203 29.6256 37.5428C29.3216 37.4662 29.323 37.4662 29.0828 37.538ZM31.3285 37.5628C31.0525 37.6613 30.8845 37.8044 30.7557 38.0506C30.6802 38.1949 30.6626 38.4143 30.671 39.1113C30.6856 40.3241 30.7313 40.7135 30.8859 40.9431C31.2918 41.546 32.2048 41.5025 32.5454 40.8642C32.6854 40.6017 32.6876 40.5734 32.6486 39.5052C32.6267 38.9052 32.5844 38.3179 32.5546 38.2001C32.4877 37.9356 32.1661 37.6141 31.8891 37.5345C31.6312 37.4605 31.6122 37.4615 31.3285 37.5628Z" fill="#F5F5F5"/>
</svg>
