<svg width="61" height="61" viewBox="0 0 61 61" fill="none" xmlns="http://www.w3.org/2000/svg">
<circle cx="30.5" cy="30.5" r="30.5" fill="#D10026"/>
<g clip-path="url(#clip0_488_15741)">
<path d="M38.9 32.24C38.77 32.16 38.19 31.95 37.82 31.83C36.79 31.49 36.09 31.18 35.25 30.69C34.2 30.08 34.16 30.06 33.89 30.09C33.58 30.13 33.32 30.33 33.19 30.61C33.07 30.89 33.1 31.19 33.28 31.43C33.66 31.96 36.05 33.11 37.45 33.53C37.84 33.65 38.12 33.77 38.25 33.9C38.57 34.2 38.75 34.62 38.83 35.31C38.89 35.82 38.86 37.25 38.83 37.39C38.66 37.59 37.1 38.25 35.64 38.63C34.05 39.05 32.6 39.23 30.8 39.23C30.79 39.23 30.78 39.23 30.77 39.23C28.67 39.23 26.84 38.95 25.02 38.35C23.91 38 22.9 37.53 22.8 37.45C22.75 37.27 22.72 35.83 22.78 35.32C22.87 34.61 23.1 34.1 23.45 33.85C23.51 33.81 23.72 33.7 24.43 33.46C24.91 33.3 25.56 33.05 25.89 32.9C26.75 32.51 28.08 31.8 28.34 31.45C28.52 31.21 28.55 30.9 28.42 30.62C28.29 30.33 28.02 30.14 27.7 30.1C27.43 30.08 27.32 30.14 26.76 30.47C25.72 31.1 24.61 31.59 23.65 31.87C22.8 32.11 22.22 32.47 21.83 33C21.23 33.8 21 34.71 21 36.26C21 37.6 21.14 38.31 21.46 38.63C21.8 38.97 23.52 39.72 24.63 40.08C26.55 40.69 28.7 41 30.83 41C32.97 41 35.11 40.69 37 40.08C38.1 39.72 39.91 38.97 40.21 38.6C40.49 38.27 40.61 37.57 40.61 36.27C40.62 34.13 40.12 32.97 38.9 32.24Z" fill="white"/>
<path d="M26.8698 28.6C27.1298 28.98 27.6598 29.53 28.0098 29.77C28.7798 30.32 29.7898 30.6 30.8098 30.6C31.4398 30.6 32.0698 30.49 32.6598 30.27C33.5598 29.93 34.3698 29.22 34.9398 28.28C35.3198 27.64 35.6798 26.53 35.8198 25.52C35.9098 24.86 35.8998 22.93 35.7998 22.3C35.4098 20 34.0198 18.51 31.8698 18.1C31.5198 18.03 30.6298 17.97 30.3598 18.01L29.8698 18.08C28.8398 18.22 27.8098 18.74 27.1198 19.48C26.4398 20.21 26.0298 21.07 25.8298 22.22C25.7298 22.77 25.6898 24.44 25.7598 25.15C25.8898 26.49 26.2998 27.75 26.8698 28.6ZM27.4798 23.93C27.4798 22.69 27.5398 22.26 27.7898 21.63C28.1798 20.67 28.9298 20.04 29.9598 19.82C30.1598 19.78 30.4498 19.76 30.7498 19.76C31.0798 19.76 31.4098 19.79 31.6398 19.84C33.0398 20.15 33.8098 21.02 34.0698 22.58C34.1598 23.1 34.1698 24.76 34.0898 25.3C33.8898 26.61 33.5398 27.44 32.9098 28.06C32.5498 28.42 32.2798 28.58 31.7898 28.73C31.5398 28.81 31.4498 28.82 30.8098 28.82C30.1698 28.82 30.0798 28.81 29.8298 28.73C28.5798 28.34 27.8698 27.33 27.5498 25.46C27.4898 25.15 27.4698 24.82 27.4798 23.93Z" fill="white"/>
</g>
<path fill-rule="evenodd" clip-rule="evenodd" d="M46.9817 29.3934C46.6671 25.8836 45.4591 22.7759 43.4084 20.1999C40.7969 16.9194 37.081 14.7972 32.7886 14.1347C31.6249 13.9551 29.3784 13.9551 28.2147 14.1347C23.3454 14.8863 19.2712 17.4892 16.6456 21.5258C16.0838 22.3897 15.2624 24.0587 14.9361 24.9997C13.45 29.2846 13.7416 33.8975 15.7516 37.9009C18.1961 42.7699 22.7197 46.0241 28.2147 46.8666C29.3718 47.044 31.6246 47.0446 32.7886 46.8678C36.4485 46.3119 39.5945 44.734 42.1575 42.1684C44.7006 39.6228 46.3049 36.4344 46.8389 32.8641C46.954 32.0948 47.0389 30.0313 46.9817 29.3934ZM44.5557 32.288C44.3397 33.9256 43.9009 35.3597 43.1687 36.8212C42.7745 37.6079 41.9419 38.9149 41.5139 39.4188L41.3091 39.6599L31.323 29.6628L21.337 19.6657L21.931 19.213C25.3874 16.5793 29.865 15.6784 34.0851 16.7675C36.6058 17.4182 38.8126 18.7174 40.6836 20.6525C41.5406 21.5388 41.9599 22.0728 42.5557 23.0369C43.6425 24.7958 44.3528 26.8284 44.5878 28.8525C44.6871 29.7079 44.6712 31.4121 44.5557 32.288ZM39.0611 41.7976C35.6251 44.4159 31.1271 45.3209 26.9316 44.2381C23.5167 43.3567 20.5452 41.1954 18.5529 38.1439C18.0771 37.4153 17.4598 36.1475 17.1505 35.264C15.5384 30.6586 16.3675 25.5688 19.3495 21.7648L19.6856 21.3361L29.6674 31.3275C35.1574 36.8229 39.6493 41.3259 39.6493 41.3343C39.6493 41.3426 39.3846 41.5512 39.0611 41.7976Z" fill="#F5F5F5"/>
<defs>
<clipPath id="clip0_488_15741">
<rect width="19.62" height="22.99" fill="white" transform="translate(21 18)"/>
</clipPath>
</defs>
</svg>
