<svg width="61" height="61" viewBox="0 0 61 61" fill="none" xmlns="http://www.w3.org/2000/svg">
<circle cx="30.5" cy="30.5" r="30.5" fill="#D10026"/>
<path d="M35 27C35 28.3261 35.5268 29.5979 36.4645 30.5355C37.4021 31.4732 38.6739 32 40 32C41.3261 32 42.5979 31.4732 43.5355 30.5355C44.4732 29.5979 45 28.3261 45 27C45.0001 26.8449 44.9642 26.6918 44.895 26.553L40.895 18.553C40.7874 18.3375 40.6057 18.1681 40.3832 18.0759C40.1608 17.9837 39.9125 17.9748 39.684 18.051L33.353 20.161C33.0023 19.7152 32.5335 19.3767 32 19.184V17C32 16.4477 31.5523 16 31 16C30.4477 16 30 16.4477 30 17V19.184C29.4263 19.3868 28.928 19.7596 28.5715 20.2526C28.2149 20.7457 28.0169 21.3357 28.004 21.944L21.684 24.051C21.4326 24.1348 21.2247 24.315 21.106 24.552L17.106 32.552C17.0363 32.6911 17 32.8445 17 33C17 34.3261 17.5268 35.5979 18.4645 36.5355C19.4021 37.4732 20.6739 38 22 38C23.3261 38 24.5979 37.4732 25.5355 36.5355C26.4732 35.5979 27 34.3261 27 33C27.0001 32.8449 26.9642 32.6918 26.895 32.553L23.41 25.584L28.647 23.838C28.9976 24.2839 29.4664 24.6225 30 24.815V42H22C21.4477 42 21 42.4477 21 43C21 43.5523 21.4477 44 22 44H40C40.5523 44 41 43.5523 41 43C41 42.4477 40.5523 42 40 42H32V24.816C32.5737 24.6132 33.072 24.2404 33.4285 23.7474C33.7851 23.2543 33.9831 22.6643 33.996 22.056L38.026 20.712L35.106 26.552C35.0363 26.6911 35 26.8445 35 27ZM22 36C21.3818 35.9978 20.7794 35.8044 20.2754 35.4464C19.7714 35.0883 19.3905 34.5831 19.185 34H24.815C24.6095 34.5831 24.2286 35.0883 23.7246 35.4464C23.2206 35.8044 22.6182 35.9978 22 36ZM24.382 32H19.618L22 27.236L24.382 32ZM31 23C30.8022 23 30.6089 22.9414 30.4444 22.8315C30.28 22.7216 30.1518 22.5654 30.0761 22.3827C30.0004 22.2 29.9806 21.9989 30.0192 21.8049C30.0578 21.6109 30.153 21.4327 30.2929 21.2929C30.4327 21.153 30.6109 21.0578 30.8049 21.0192C30.9989 20.9806 31.2 21.0004 31.3827 21.0761C31.5654 21.1518 31.7216 21.28 31.8315 21.4444C31.9414 21.6089 32 21.8022 32 22C32 22.2652 31.8946 22.5196 31.7071 22.7071C31.5196 22.8946 31.2652 23 31 23ZM40 30C39.3818 29.9978 38.7794 29.8044 38.2754 29.4464C37.7714 29.0883 37.3905 28.5831 37.185 28H42.815C42.6095 28.5831 42.2286 29.0883 41.7246 29.4464C41.2206 29.8044 40.6182 29.9978 40 30ZM40 21.236L42.382 26H37.618L40 21.236Z" fill="#F5F5F5"/>
</svg>
