<svg width="61" height="61" viewBox="0 0 61 61" fill="none" xmlns="http://www.w3.org/2000/svg">
<circle cx="30.5" cy="30.5" r="30.5" fill="#3667DF"/>
<path d="M37.9959 30.5196C37.9967 30.9361 37.8573 31.3398 37.6019 31.6605L29.0349 42.356C28.744 42.7201 28.3261 42.949 27.873 42.9925C27.42 43.0359 26.9689 42.8903 26.619 42.5878C26.2691 42.2852 26.049 41.8504 26.0073 41.379C25.9655 40.9077 26.1054 40.4383 26.3962 40.0743L34.0723 30.5196L26.6704 20.9649C26.528 20.7826 26.4218 20.5728 26.3576 20.3475C26.2935 20.1223 26.2728 19.8862 26.2967 19.6526C26.3205 19.419 26.3886 19.1927 26.4968 18.9865C26.605 18.7804 26.7514 18.5985 26.9274 18.4514C27.1036 18.2882 27.3102 18.1646 27.5345 18.0883C27.7587 18.012 27.9957 17.9847 28.2305 18.0081C28.4654 18.0316 28.693 18.1052 28.8992 18.2244C29.1055 18.3437 29.2858 18.5059 29.4289 18.701L37.7047 29.3966C37.9197 29.7265 38.0223 30.1219 37.9959 30.5196Z" fill="#F5F5F5"/>
</svg>
