<svg width="61" height="61" viewBox="0 0 61 61" fill="none" xmlns="http://www.w3.org/2000/svg">
<circle cx="30.5" cy="30.5" r="30.5" fill="#08BE26"/>
<path fill-rule="evenodd" clip-rule="evenodd" d="M18.2153 21C18.1474 21 18.0823 21.027 18.0344 21.0749L17.0749 22.0344C17.027 22.0823 17 22.1474 17 22.2153V39.4847C17 39.5526 17.027 39.6177 17.0749 39.6656L18.0344 40.6251C18.0823 40.673 18.1474 40.7 18.2153 40.7H43.1601C43.2279 40.7 43.293 40.673 43.341 40.6251L44.3004 39.6656C44.3484 39.6177 44.3753 39.5526 44.3753 39.4847V22.2153C44.3753 22.1474 44.3484 22.0823 44.3004 22.0344L43.341 21.0749C43.293 21.027 43.2279 21 43.1601 21H18.2153ZM30.6877 30.2759L21.7882 23.4305H39.5871L30.6877 30.2759ZM19.4305 38.2695V24.7194L29.9565 32.7801C30.0011 32.8143 30.0558 32.8328 30.112 32.8328H31.2825C31.3388 32.8328 31.3935 32.8142 31.4382 32.78L41.9448 24.7218V38.2695H19.4305Z" fill="#F5F5F5"/>
</svg>
